{
  "source": "C:\\Users\\Peter\\Desktop\\stuff\\MIUN\\quantitative_research\\video_compression\\videos\\BVI-HD\\BVI-HD_CDVL_videos\\ORIG\\TreeTrunk_1920x1080_50fps.mp4",
  "output": "C:\\Users\\Peter\\Desktop\\stuff\\MIUN\\quantitative_research\\video_compression\\compressed_videos\\BVI-HD\\hevc\\3\\TreeTrunk_1920x1080_50fps_hevc.mp4",
  "codec": "hevc",
  "ok": "Input #0, mov,mp4,m4a,3gp,3g2,mj2, from 'C:\\Users\\Peter\\Desktop\\stuff\\MIUN\\quantitative_research\\video_compression\\videos\\BVI-HD\\BVI-HD_CDVL_videos\\ORIG\\TreeTrunk_1920x1080_50fps.mp4':\n  Metadata:\n    major_brand     : isom\n    minor_version   : 512\n    compatible_brands: isomiso2avc1mp41\n    encoder         : Lavf54.28.101\n  Duration: 00:00:05.00, start: 0.000000, bitrate: 622415 kb/s\n  Stream #0:0[0x1](und): Video: h264 (High 4:4:4 Predictive) (avc1 / 0x31637661), yuv420p(progressive), 1920x1080, 622410 kb/s, 50 fps, 50 tbr, 50 tbn (default)\n    Metadata:\n      handler_name    : VideoHandler\n      vendor_id       : [0][0][0][0]\n[out#0/mp4 @ 00000131795a7d80] Codec AVOption b:a (set bitrate (in bits/s)) has not been used for any stream. The most likely reason is either wrong type (e.g. a video option with no video streams) or that it is a private option of some decoder which was not actually used for any stream.\nStream mapping:\n  Stream #0:0 -> #0:0 (h264 (native) -> hevc (libx265))\nPress [q] to stop, [?] for help\n[libx265 @ 000001317a210b40] Unknown option: \"aq-mode.\nx265 [info]: HEVC encoder version 4.1+190-8f11c33ac\nx265 [info]: build info [Windows][GCC 15.1.0][64 bit] 10bit\nx265 [info]: using cpu capabilities: MMX2 SSE2Fast LZCNT SSSE3 SSE4.2 AVX FMA3 BMI2 AVX2\nx265 [info]: Main 10 profile, Level-4.1 (Main tier)\nx265 [info]: Thread pool created using 12 threads\nx265 [info]: Slices                              : 1\nx265 [info]: frame threads / pool features       : 3 / wpp(17 rows)\nx265 [info]: Coding QT: max CU size, min CU size : 64 / 8\nx265 [info]: Residual QT: max TU size, max depth : 32 / 1 inter / 1 intra\nx265 [info]: ME / range / subpel / merge         : star / 57 / 3 / 3\nx265 [info]: Keyframe min / max / scenecut / bias  : 25 / 250 / 40 / 5.00 \nx265 [info]: Lookahead / bframes / badapt        : 25 / 4 / 2\nx265 [info]: b-pyramid / weightp / weightb       : 1 / 1 / 0\nx265 [info]: References / ref-limit  cu / depth  : 4 / on / on\nx265 [info]: AQ: mode / str / qg-size / cu-tree  : 2 / 1.0 / 32 / 1\nx265 [info]: Rate Control / qCompress            : ABR-3000 kbps / 0.60\nx265 [info]: VBV/HRD buffer / max-rate / init    : 3000 / 3000 / 0.750\nx265 [info]: tools: rect limit-modes rd=4 psy-rd=2.00 rdoq=2 psy-rdoq=1.00\nx265 [info]: tools: rskip mode=1 signhide tmvp strong-intra-smoothing lslices=4\nx265 [info]: tools: deblock sao dhdr10-info\nOutput #0, mp4, to 'C:\\Users\\Peter\\Desktop\\stuff\\MIUN\\quantitative_research\\video_compression\\compressed_videos\\BVI-HD\\hevc\\3\\TreeTrunk_1920x1080_50fps_hevc.mp4':\n  Metadata:\n    major_brand     : isom\n    minor_version   : 512\n    compatible_brands: isomiso2avc1mp41\n    encoder         : Lavf62.3.100\n  Stream #0:0(und): Video: hevc (hev1 / 0x31766568), yuv420p10le(tv, progressive), 1920x1080, q=2-31, 3000 kb/s, 50 fps, 12800 tbn (default)\n    Metadata:\n      encoder         : Lavc62.11.100 libx265\n      handler_name    : VideoHandler\n      vendor_id       : [0][0][0][0]\n    Side data:\n      cpb: bitrate max/min/avg: 3000000/0/3000000 buffer size: 3000000 vbv_delay: N/A\nframe=    0 fps=0.0 q=0.0 size=       0KiB time=N/A bitrate=N/A speed=N/A elapsed=0:00:03.18    \nframe=    0 fps=0.0 q=0.0 size=       0KiB time=N/A bitrate=N/A speed=N/A elapsed=0:00:03.84    \nframe=    0 fps=0.0 q=0.0 size=       0KiB time=N/A bitrate=N/A speed=N/A elapsed=0:00:04.45    \nframe=    0 fps=0.0 q=0.0 size=       0KiB time=N/A bitrate=N/A speed=N/A elapsed=0:00:05.11    \nframe=    0 fps=0.0 q=0.0 size=       0KiB time=N/A bitrate=N/A speed=N/A elapsed=0:00:05.78    \nframe=    0 fps=0.0 q=0.0 size=       0KiB time=N/A bitrate=N/A speed=N/A elapsed=0:00:06.42    \nframe=    0 fps=0.0 q=0.0 size=       0KiB time=N/A bitrate=N/A speed=N/A elapsed=0:00:07.17    \nframe=    0 fps=0.0 q=0.0 size=       0KiB time=N/A bitrate=N/A speed=N/A elapsed=0:00:07.93    \nframe=    0 fps=0.0 q=0.0 size=       0KiB time=N/A bitrate=N/A speed=N/A elapsed=0:00:08.65    \nframe=    0 fps=0.0 q=0.0 size=       0KiB time=N/A bitrate=N/A speed=N/A elapsed=0:00:09.30    \nframe=    0 fps=0.0 q=0.0 size=       0KiB time=N/A bitrate=N/A speed=N/A elapsed=0:00:09.89    \nframe=    0 fps=0.0 q=0.0 size=       0KiB time=N/A bitrate=N/A speed=N/A elapsed=0:00:10.49    \nframe=    0 fps=0.0 q=0.0 size=       0KiB time=N/A bitrate=N/A speed=N/A elapsed=0:00:11.10    \nframe=    0 fps=0.0 q=0.0 size=       0KiB time=N/A bitrate=N/A speed=N/A elapsed=0:00:11.67    \nframe=    0 fps=0.0 q=0.0 size=       0KiB time=N/A bitrate=N/A speed=N/A elapsed=0:00:12.21    \nframe=    0 fps=0.0 q=0.0 size=       0KiB time=N/A bitrate=N/A speed=N/A elapsed=0:00:12.75    \nframe=    0 fps=0.0 q=0.0 size=       0KiB time=N/A bitrate=N/A speed=N/A elapsed=0:00:13.36    \nframe=    0 fps=0.0 q=0.0 size=       0KiB time=N/A bitrate=N/A speed=N/A elapsed=0:00:13.94    \nframe=    0 fps=0.0 q=0.0 size=       0KiB time=N/A bitrate=N/A speed=N/A elapsed=0:00:14.64    \nframe=    0 fps=0.0 q=0.0 size=       0KiB time=N/A bitrate=N/A speed=N/A elapsed=0:00:15.18    \nframe=    0 fps=0.0 q=0.0 size=       0KiB time=N/A bitrate=N/A speed=N/A elapsed=0:00:15.77    \nframe=    0 fps=0.0 q=0.0 size=       0KiB time=N/A bitrate=N/A speed=N/A elapsed=0:00:16.30    \nframe=    0 fps=0.0 q=0.0 size=       0KiB time=N/A bitrate=N/A speed=N/A elapsed=0:00:16.90    \nframe=    0 fps=0.0 q=0.0 size=       0KiB time=N/A bitrate=N/A speed=N/A elapsed=0:00:17.46    \nframe=    0 fps=0.0 q=0.0 size=       0KiB time=N/A bitrate=N/A speed=N/A elapsed=0:00:18.04    \nframe=    0 fps=0.0 q=0.0 size=       0KiB time=N/A bitrate=N/A speed=N/A elapsed=0:00:18.55    \nframe=    0 fps=0.0 q=0.0 size=       0KiB time=N/A bitrate=N/A speed=N/A elapsed=0:00:19.15    \nframe=    0 fps=0.0 q=0.0 size=       0KiB time=N/A bitrate=N/A speed=N/A elapsed=0:00:19.73    \nframe=    0 fps=0.0 q=0.0 size=       0KiB time=N/A bitrate=N/A speed=N/A elapsed=0:00:20.26    \nframe=    0 fps=0.0 q=0.0 size=       0KiB time=N/A bitrate=N/A speed=N/A elapsed=0:00:20.94    \nframe=    1 fps=0.0 q=37.6 size=       0KiB time=-00:00:00.02 bitrate=N/A speed=N/A elapsed=0:00:21.54    \nframe=    2 fps=0.1 q=50.3 size=       0KiB time=00:00:00.00 bitrate=N/A speed=   0x elapsed=0:00:22.30    \nframe=    2 fps=0.1 q=50.3 size=       0KiB time=00:00:00.00 bitrate=N/A speed=   0x elapsed=0:00:23.10    \nframe=    3 fps=0.1 q=51.0 size=       0KiB time=00:00:00.02 bitrate=  17.6kbits/s speed=0.000837x elapsed=0:00:23.89    \nframe=    3 fps=0.1 q=51.0 size=       0KiB time=00:00:00.02 bitrate=  17.6kbits/s speed=0.000812x elapsed=0:00:24.62    \nframe=    3 fps=0.1 q=51.0 size=       0KiB time=00:00:00.02 bitrate=  17.6kbits/s speed=0.000793x elapsed=0:00:25.22    \nframe=    4 fps=0.2 q=51.0 size=       0KiB time=00:00:00.04 bitrate=   8.8kbits/s speed=0.00155x elapsed=0:00:25.74    \nframe=    4 fps=0.2 q=51.0 size=       0KiB time=00:00:00.04 bitrate=   8.8kbits/s speed=0.00152x elapsed=0:00:26.28    \nframe=    4 fps=0.1 q=51.0 size=       0KiB time=00:00:00.04 bitrate=   8.8kbits/s speed=0.00149x elapsed=0:00:26.85    \nframe=    4 fps=0.1 q=51.0 size=       0KiB time=00:00:00.04 bitrate=   8.8kbits/s speed=0.00146x elapsed=0:00:27.36    \nframe=    5 fps=0.2 q=50.0 size=       0KiB time=00:00:00.06 bitrate=   5.9kbits/s speed=0.00215x elapsed=0:00:27.94    \nframe=    5 fps=0.2 q=50.0 size=       0KiB time=00:00:00.06 bitrate=   5.9kbits/s speed=0.00209x elapsed=0:00:28.65    \nframe=    6 fps=0.2 q=49.0 size=       0KiB time=00:00:00.08 bitrate=   4.4kbits/s speed=0.00272x elapsed=0:00:29.40    \nframe=    7 fps=0.2 q=39.1 size=       0KiB time=00:00:00.10 bitrate=   3.5kbits/s speed=0.00334x elapsed=0:00:29.92    \nframe=    7 fps=0.2 q=39.1 size=       0KiB time=00:00:00.10 bitrate=   3.5kbits/s speed=0.00328x elapsed=0:00:30.47    \nframe=    7 fps=0.2 q=39.1 size=       0KiB time=00:00:00.10 bitrate=   3.5kbits/s speed=0.00321x elapsed=0:00:31.15    \nframe=    7 fps=0.2 q=39.1 size=       0KiB time=00:00:00.10 bitrate=   3.5kbits/s speed=0.00314x elapsed=0:00:31.85    \nframe=    8 fps=0.2 q=44.0 size=       0KiB time=00:00:00.12 bitrate=   2.9kbits/s speed=0.0037x elapsed=0:00:32.40    \nframe=    8 fps=0.2 q=44.0 size=       0KiB time=00:00:00.12 bitrate=   2.9kbits/s speed=0.00364x elapsed=0:00:32.94    \nframe=    9 fps=0.3 q=43.9 size=       0KiB time=00:00:00.14 bitrate=   2.5kbits/s speed=0.00417x elapsed=0:00:33.55    \nframe=    9 fps=0.3 q=43.9 size=       0KiB time=00:00:00.14 bitrate=   2.5kbits/s speed=0.0041x elapsed=0:00:34.16    \nframe=    9 fps=0.3 q=43.9 size=       0KiB time=00:00:00.14 bitrate=   2.5kbits/s speed=0.004x elapsed=0:00:35.00    \nframe=    9 fps=0.3 q=43.9 size=       0KiB time=00:00:00.14 bitrate=   2.5kbits/s speed=0.00394x elapsed=0:00:35.57    \nframe=    9 fps=0.2 q=43.9 size=       0KiB time=00:00:00.14 bitrate=   2.5kbits/s speed=0.00388x elapsed=0:00:36.12    \nframe=    9 fps=0.2 q=43.9 size=       0KiB time=00:00:00.14 bitrate=   2.5kbits/s speed=0.00381x elapsed=0:00:36.74    \nframe=    9 fps=0.2 q=43.9 size=       0KiB time=00:00:00.14 bitrate=   2.5kbits/s speed=0.00373x elapsed=0:00:37.52    \nframe=   10 fps=0.3 q=42.9 size=       0KiB time=00:00:00.16 bitrate=   2.2kbits/s speed=0.0042x elapsed=0:00:38.05    \nframe=   10 fps=0.3 q=42.9 size=       0KiB time=00:00:00.16 bitrate=   2.2kbits/s speed=0.00415x elapsed=0:00:38.57    \nframe=   10 fps=0.3 q=42.9 size=       0KiB time=00:00:00.16 bitrate=   2.2kbits/s speed=0.00409x elapsed=0:00:39.15    \nframe=   11 fps=0.3 q=41.9 size=       0KiB time=00:00:00.18 bitrate=   2.0kbits/s speed=0.00451x elapsed=0:00:39.93    \nframe=   11 fps=0.3 q=41.9 size=       0KiB time=00:00:00.18 bitrate=   2.0kbits/s speed=0.00444x elapsed=0:00:40.50    \nframe=   12 fps=0.3 q=36.0 size=       0KiB time=00:00:00.20 bitrate=   1.8kbits/s speed=0.00487x elapsed=0:00:41.03    \nframe=   12 fps=0.3 q=36.0 size=       0KiB time=00:00:00.20 bitrate=   1.8kbits/s speed=0.00481x elapsed=0:00:41.59    \nframe=   13 fps=0.3 q=42.9 size=       0KiB time=00:00:00.22 bitrate=   1.6kbits/s speed=0.0052x elapsed=0:00:42.30    \nframe=   13 fps=0.3 q=42.9 size=       0KiB time=00:00:00.22 bitrate=   1.6kbits/s speed=0.00512x elapsed=0:00:43.00    \nframe=   13 fps=0.3 q=42.9 size=       0KiB time=00:00:00.22 bitrate=   1.6kbits/s speed=0.00505x elapsed=0:00:43.60    \nframe=   13 fps=0.3 q=42.9 size=       0KiB time=00:00:00.22 bitrate=   1.6kbits/s speed=0.00498x elapsed=0:00:44.20    \nframe=   13 fps=0.3 q=42.9 size=       0KiB time=00:00:00.22 bitrate=   1.6kbits/s speed=0.00491x elapsed=0:00:44.81    \nframe=   13 fps=0.3 q=42.9 size=       0KiB time=00:00:00.22 bitrate=   1.6kbits/s speed=0.00484x elapsed=0:00:45.43    \nframe=   14 fps=0.3 q=42.0 size=       0KiB time=00:00:00.24 bitrate=   1.5kbits/s speed=0.00522x elapsed=0:00:45.99    \nframe=   14 fps=0.3 q=42.0 size=       0KiB time=00:00:00.24 bitrate=   1.5kbits/s speed=0.00516x elapsed=0:00:46.51    \nframe=   14 fps=0.3 q=42.0 size=       0KiB time=00:00:00.24 bitrate=   1.5kbits/s speed=0.0051x elapsed=0:00:47.06    \nframe=   14 fps=0.3 q=42.0 size=       0KiB time=00:00:00.24 bitrate=   1.5kbits/s speed=0.00503x elapsed=0:00:47.69    \nframe=   14 fps=0.3 q=42.0 size=       0KiB time=00:00:00.24 bitrate=   1.5kbits/s speed=0.00496x elapsed=0:00:48.35    \nframe=   15 fps=0.3 q=42.9 size=       0KiB time=00:00:00.26 bitrate=   1.4kbits/s speed=0.00532x elapsed=0:00:48.87    \nframe=   15 fps=0.3 q=42.9 size=       0KiB time=00:00:00.26 bitrate=   1.4kbits/s speed=0.00526x elapsed=0:00:49.41    \nframe=   15 fps=0.3 q=42.9 size=       0KiB time=00:00:00.26 bitrate=   1.4kbits/s speed=0.0052x elapsed=0:00:49.95    \nframe=   15 fps=0.3 q=42.9 size=       0KiB time=00:00:00.26 bitrate=   1.4kbits/s speed=0.00514x elapsed=0:00:50.62    \nframe=   16 fps=0.3 q=43.0 size=       0KiB time=00:00:00.28 bitrate=   1.3kbits/s speed=0.00547x elapsed=0:00:51.16    \nframe=   17 fps=0.3 q=35.9 size=       0KiB time=00:00:00.30 bitrate=   1.2kbits/s speed=0.0058x elapsed=0:00:51.69    \nframe=   17 fps=0.3 q=35.9 size=       0KiB time=00:00:00.30 bitrate=   1.2kbits/s speed=0.00574x elapsed=0:00:52.26    \nframe=   17 fps=0.3 q=35.9 size=       0KiB time=00:00:00.30 bitrate=   1.2kbits/s speed=0.00568x elapsed=0:00:52.86    \nframe=   17 fps=0.3 q=35.9 size=       0KiB time=00:00:00.30 bitrate=   1.2kbits/s speed=0.00561x elapsed=0:00:53.50    \nframe=   17 fps=0.3 q=35.9 size=       0KiB time=00:00:00.30 bitrate=   1.2kbits/s speed=0.00555x elapsed=0:00:54.07    \nframe=   17 fps=0.3 q=35.9 size=       0KiB time=00:00:00.30 bitrate=   1.2kbits/s speed=0.00549x elapsed=0:00:54.66    \nframe=   18 fps=0.3 q=44.0 size=       0KiB time=00:00:00.32 bitrate=   1.1kbits/s speed=0.0058x elapsed=0:00:55.20    \nframe=   19 fps=0.3 q=45.0 size=       0KiB time=00:00:00.34 bitrate=   1.0kbits/s speed=0.0061x elapsed=0:00:55.76    \nframe=   19 fps=0.3 q=45.0 size=       0KiB time=00:00:00.34 bitrate=   1.0kbits/s speed=0.00604x elapsed=0:00:56.31    \nframe=   19 fps=0.3 q=45.0 size=       0KiB time=00:00:00.34 bitrate=   1.0kbits/s speed=0.00598x elapsed=0:00:56.89    \nframe=   19 fps=0.3 q=45.0 size=       0KiB time=00:00:00.34 bitrate=   1.0kbits/s speed=0.00592x elapsed=0:00:57.45    \nframe=   19 fps=0.3 q=45.0 size=       0KiB time=00:00:00.34 bitrate=   1.0kbits/s speed=0.00586x elapsed=0:00:58.00    \nframe=   19 fps=0.3 q=45.0 size=       0KiB time=00:00:00.34 bitrate=   1.0kbits/s speed=0.0058x elapsed=0:00:58.57    \nframe=   20 fps=0.3 q=43.9 size=       0KiB time=00:00:00.36 bitrate=   1.0kbits/s speed=0.00609x elapsed=0:00:59.14    \nframe=   20 fps=0.3 q=43.9 size=       0KiB time=00:00:00.36 bitrate=   1.0kbits/s speed=0.00603x elapsed=0:00:59.72    \nframe=   21 fps=0.3 q=44.0 size=       0KiB time=00:00:00.38 bitrate=   0.9kbits/s speed=0.0063x elapsed=0:01:00.28    \nframe=   21 fps=0.3 q=44.0 size=       0KiB time=00:00:00.38 bitrate=   0.9kbits/s speed=0.00624x elapsed=0:01:00.86    \nframe=   21 fps=0.3 q=44.0 size=       0KiB time=00:00:00.38 bitrate=   0.9kbits/s speed=0.00619x elapsed=0:01:01.41    \nframe=   22 fps=0.4 q=35.2 size=       0KiB time=00:00:00.40 bitrate=   0.9kbits/s speed=0.00646x elapsed=0:01:01.96    \nframe=   22 fps=0.4 q=35.2 size=       0KiB time=00:00:00.40 bitrate=   0.9kbits/s speed=0.0064x elapsed=0:01:02.50    \nframe=   23 fps=0.4 q=43.0 size=       0KiB time=00:00:00.42 bitrate=   0.8kbits/s speed=0.00666x elapsed=0:01:03.04    \nframe=   23 fps=0.4 q=43.0 size=       0KiB time=00:00:00.42 bitrate=   0.8kbits/s speed=0.00661x elapsed=0:01:03.56    \nframe=   23 fps=0.4 q=43.0 size=       0KiB time=00:00:00.42 bitrate=   0.8kbits/s speed=0.00655x elapsed=0:01:04.15    \nframe=   23 fps=0.4 q=43.0 size=       0KiB time=00:00:00.42 bitrate=   0.8kbits/s speed=0.00649x elapsed=0:01:04.69    \nframe=   24 fps=0.4 q=43.0 size=       0KiB time=00:00:00.44 bitrate=   0.8kbits/s speed=0.00675x elapsed=0:01:05.22    \nframe=   24 fps=0.4 q=43.0 size=       0KiB time=00:00:00.44 bitrate=   0.8kbits/s speed=0.00668x elapsed=0:01:05.83    \nframe=   24 fps=0.4 q=43.0 size=       0KiB time=00:00:00.44 bitrate=   0.8kbits/s speed=0.00663x elapsed=0:01:06.40    \nframe=   24 fps=0.4 q=43.0 size=       0KiB time=00:00:00.44 bitrate=   0.8kbits/s speed=0.00657x elapsed=0:01:06.98    \nframe=   24 fps=0.4 q=43.0 size=       0KiB time=00:00:00.44 bitrate=   0.8kbits/s speed=0.00651x elapsed=0:01:07.59    \nframe=   24 fps=0.4 q=43.0 size=       0KiB time=00:00:00.44 bitrate=   0.8kbits/s speed=0.00645x elapsed=0:01:08.21    \nframe=   24 fps=0.3 q=43.0 size=       0KiB time=00:00:00.44 bitrate=   0.8kbits/s speed=0.00639x elapsed=0:01:08.82    \nframe=   24 fps=0.3 q=43.0 size=       0KiB time=00:00:00.44 bitrate=   0.8kbits/s speed=0.00634x elapsed=0:01:09.41    \nframe=   25 fps=0.4 q=42.0 size=       0KiB time=00:00:00.46 bitrate=   0.8kbits/s speed=0.00657x elapsed=0:01:10.03    \nframe=   25 fps=0.4 q=42.0 size=       0KiB time=00:00:00.46 bitrate=   0.8kbits/s speed=0.00651x elapsed=0:01:10.64    \nframe=   25 fps=0.4 q=42.0 size=       0KiB time=00:00:00.46 bitrate=   0.8kbits/s speed=0.00646x elapsed=0:01:11.23    \nframe=   25 fps=0.3 q=42.0 size=       0KiB time=00:00:00.46 bitrate=   0.8kbits/s speed=0.0064x elapsed=0:01:11.86    \nframe=   25 fps=0.3 q=42.0 size=       0KiB time=00:00:00.46 bitrate=   0.8kbits/s speed=0.00635x elapsed=0:01:12.41    \nframe=   25 fps=0.3 q=42.0 size=       0KiB time=00:00:00.46 bitrate=   0.8kbits/s speed=0.00631x elapsed=0:01:12.92    \nframe=   25 fps=0.3 q=42.0 size=       0KiB time=00:00:00.46 bitrate=   0.8kbits/s speed=0.00626x elapsed=0:01:13.48    \nframe=   25 fps=0.3 q=42.0 size=       0KiB time=00:00:00.46 bitrate=   0.8kbits/s speed=0.00621x elapsed=0:01:14.04    \nframe=   25 fps=0.3 q=42.0 size=       0KiB time=00:00:00.46 bitrate=   0.8kbits/s speed=0.00617x elapsed=0:01:14.59    \nframe=   25 fps=0.3 q=42.0 size=       0KiB time=00:00:00.46 bitrate=   0.8kbits/s speed=0.00612x elapsed=0:01:15.12    \nframe=   26 fps=0.3 q=42.0 size=       0KiB time=00:00:00.48 bitrate=   0.7kbits/s speed=0.00635x elapsed=0:01:15.64    \nframe=   27 fps=0.4 q=34.6 size=       0KiB time=00:00:00.50 bitrate=   0.7kbits/s speed=0.00656x elapsed=0:01:16.17    \nframe=   27 fps=0.4 q=34.6 size=       0KiB time=00:00:00.50 bitrate=   0.7kbits/s speed=0.00652x elapsed=0:01:16.71    \nframe=   27 fps=0.3 q=34.6 size=       0KiB time=00:00:00.50 bitrate=   0.7kbits/s speed=0.00647x elapsed=0:01:17.26    \nframe=   27 fps=0.3 q=34.6 size=       0KiB time=00:00:00.50 bitrate=   0.7kbits/s speed=0.00642x elapsed=0:01:17.85    \nframe=   27 fps=0.3 q=34.6 size=       0KiB time=00:00:00.50 bitrate=   0.7kbits/s speed=0.00638x elapsed=0:01:18.37    \nframe=   27 fps=0.3 q=34.6 size=       0KiB time=00:00:00.50 bitrate=   0.7kbits/s speed=0.00634x elapsed=0:01:18.90    \nframe=   29 fps=0.4 q=43.0 size=       0KiB time=00:00:00.54 bitrate=   0.7kbits/s speed=0.0068x elapsed=0:01:19.43    \nframe=   29 fps=0.4 q=43.0 size=       0KiB time=00:00:00.54 bitrate=   0.7kbits/s speed=0.00675x elapsed=0:01:19.97    \nframe=   29 fps=0.4 q=43.0 size=       0KiB time=00:00:00.54 bitrate=   0.7kbits/s speed=0.00671x elapsed=0:01:20.50    \nframe=   30 fps=0.4 q=42.0 size=       0KiB time=00:00:00.56 bitrate=   0.6kbits/s speed=0.00691x elapsed=0:01:21.03    \nframe=   31 fps=0.4 q=42.0 size=       0KiB time=00:00:00.58 bitrate=   0.6kbits/s speed=0.00711x elapsed=0:01:21.55    \nframe=   32 fps=0.4 q=33.7 size=       0KiB time=00:00:00.60 bitrate=   0.6kbits/s speed=0.00731x elapsed=0:01:22.09    \nframe=   32 fps=0.4 q=33.7 size=       0KiB time=00:00:00.60 bitrate=   0.6kbits/s speed=0.00726x elapsed=0:01:22.61    \nframe=   32 fps=0.4 q=33.7 size=       0KiB time=00:00:00.60 bitrate=   0.6kbits/s speed=0.00722x elapsed=0:01:23.12    \nframe=   33 fps=0.4 q=40.8 size=       0KiB time=00:00:00.62 bitrate=   0.6kbits/s speed=0.00741x elapsed=0:01:23.64    \nframe=   34 fps=0.4 q=41.0 size=       0KiB time=00:00:00.64 bitrate=   0.6kbits/s speed=0.0076x elapsed=0:01:24.18    \nframe=   34 fps=0.4 q=41.0 size=       0KiB time=00:00:00.64 bitrate=   0.6kbits/s speed=0.00755x elapsed=0:01:24.71    \nframe=   36 fps=0.4 q=40.0 size=       0KiB time=00:00:00.68 bitrate=   0.5kbits/s speed=0.00798x elapsed=0:01:25.25    \nframe=   36 fps=0.4 q=40.0 size=       0KiB time=00:00:00.68 bitrate=   0.5kbits/s speed=0.00793x elapsed=0:01:25.79    \nframe=   36 fps=0.4 q=40.0 size=       0KiB time=00:00:00.68 bitrate=   0.5kbits/s speed=0.00788x elapsed=0:01:26.32    \nframe=   37 fps=0.4 q=40.0 size=       0KiB time=00:00:00.70 bitrate=   0.5kbits/s speed=0.00806x elapsed=0:01:26.86    \nframe=   37 fps=0.4 q=40.0 size=       0KiB time=00:00:00.70 bitrate=   0.5kbits/s speed=0.00801x elapsed=0:01:27.43    \nframe=   37 fps=0.4 q=40.0 size=       0KiB time=00:00:00.70 bitrate=   0.5kbits/s speed=0.00796x elapsed=0:01:27.96    \nframe=   37 fps=0.4 q=40.0 size=       0KiB time=00:00:00.70 bitrate=   0.5kbits/s speed=0.00791x elapsed=0:01:28.54    \nframe=   37 fps=0.4 q=40.0 size=       0KiB time=00:00:00.70 bitrate=   0.5kbits/s speed=0.00785x elapsed=0:01:29.16    \nframe=   37 fps=0.4 q=40.0 size=       0KiB time=00:00:00.70 bitrate=   0.5kbits/s speed=0.0078x elapsed=0:01:29.78    \nframe=   37 fps=0.4 q=40.0 size=       0KiB time=00:00:00.70 bitrate=   0.5kbits/s speed=0.00775x elapsed=0:01:30.37    \nframe=   37 fps=0.4 q=40.0 size=       0KiB time=00:00:00.70 bitrate=   0.5kbits/s speed=0.00769x elapsed=0:01:31.03    \nframe=   37 fps=0.4 q=40.0 size=       0KiB time=00:00:00.70 bitrate=   0.5kbits/s speed=0.00764x elapsed=0:01:31.61    \nframe=   38 fps=0.4 q=39.9 size=       0KiB time=00:00:00.72 bitrate=   0.5kbits/s speed=0.00781x elapsed=0:01:32.20    \nframe=   39 fps=0.4 q=40.0 size=       0KiB time=00:00:00.74 bitrate=   0.5kbits/s speed=0.00798x elapsed=0:01:32.78    \nframe=   39 fps=0.4 q=40.0 size=       0KiB time=00:00:00.74 bitrate=   0.5kbits/s speed=0.00792x elapsed=0:01:33.37    \nframe=   39 fps=0.4 q=40.0 size=       0KiB time=00:00:00.74 bitrate=   0.5kbits/s speed=0.00787x elapsed=0:01:33.99    \nframe=   39 fps=0.4 q=40.0 size=       0KiB time=00:00:00.74 bitrate=   0.5kbits/s speed=0.00783x elapsed=0:01:34.54    \nframe=   40 fps=0.4 q=32.8 size=       0KiB time=00:00:00.76 bitrate=   0.5kbits/s speed=0.00799x elapsed=0:01:35.10    \nframe=   40 fps=0.4 q=32.8 size=       0KiB time=00:00:00.76 bitrate=   0.5kbits/s speed=0.00794x elapsed=0:01:35.66    \nframe=   40 fps=0.4 q=32.8 size=       0KiB time=00:00:00.76 bitrate=   0.5kbits/s speed=0.0079x elapsed=0:01:36.24    \nframe=   40 fps=0.4 q=32.8 size=       0KiB time=00:00:00.76 bitrate=   0.5kbits/s speed=0.00785x elapsed=0:01:36.82    \nframe=   41 fps=0.4 q=40.0 size=     256KiB time=00:00:00.78 bitrate=2689.1kbits/s speed=0.00801x elapsed=0:01:37.37    \nframe=   41 fps=0.4 q=40.0 size=     256KiB time=00:00:00.78 bitrate=2689.1kbits/s speed=0.00796x elapsed=0:01:37.98    \nframe=   41 fps=0.4 q=40.0 size=     256KiB time=00:00:00.78 bitrate=2689.1kbits/s speed=0.00791x elapsed=0:01:38.57    \nframe=   41 fps=0.4 q=40.0 size=     256KiB time=00:00:00.78 bitrate=2689.1kbits/s speed=0.00786x elapsed=0:01:39.18    \nframe=   41 fps=0.4 q=40.0 size=     256KiB time=00:00:00.78 bitrate=2689.1kbits/s speed=0.00782x elapsed=0:01:39.72    \nframe=   41 fps=0.4 q=40.0 size=     256KiB time=00:00:00.78 bitrate=2689.1kbits/s speed=0.00778x elapsed=0:01:40.31    \nframe=   42 fps=0.4 q=41.0 size=     256KiB time=00:00:00.80 bitrate=2621.9kbits/s speed=0.00793x elapsed=0:01:40.86    \nframe=   42 fps=0.4 q=41.0 size=     256KiB time=00:00:00.80 bitrate=2621.9kbits/s speed=0.00789x elapsed=0:01:41.40    \nframe=   42 fps=0.4 q=41.0 size=     256KiB time=00:00:00.80 bitrate=2621.9kbits/s speed=0.00784x elapsed=0:01:41.98    \nframe=   42 fps=0.4 q=41.0 size=     256KiB time=00:00:00.80 bitrate=2621.9kbits/s speed=0.0078x elapsed=0:01:42.55    \nframe=   43 fps=0.4 q=40.0 size=     256KiB time=00:00:00.82 bitrate=2557.9kbits/s speed=0.00795x elapsed=0:01:43.10    \nframe=   43 fps=0.4 q=40.0 size=     256KiB time=00:00:00.82 bitrate=2557.9kbits/s speed=0.00791x elapsed=0:01:43.66    \nframe=   43 fps=0.4 q=40.0 size=     256KiB time=00:00:00.82 bitrate=2557.9kbits/s speed=0.00787x elapsed=0:01:44.24    \nframe=   43 fps=0.4 q=40.0 size=     256KiB time=00:00:00.82 bitrate=2557.9kbits/s speed=0.00782x elapsed=0:01:44.83    \nframe=   43 fps=0.4 q=40.0 size=     256KiB time=00:00:00.82 bitrate=2557.9kbits/s speed=0.00778x elapsed=0:01:45.35    \nframe=   43 fps=0.4 q=40.0 size=     256KiB time=00:00:00.82 bitrate=2557.9kbits/s speed=0.00774x elapsed=0:01:45.90    \nframe=   43 fps=0.4 q=40.0 size=     256KiB time=00:00:00.82 bitrate=2557.9kbits/s speed=0.0077x elapsed=0:01:46.53    \nframe=   44 fps=0.4 q=40.0 size=     256KiB time=00:00:00.84 bitrate=2497.0kbits/s speed=0.00784x elapsed=0:01:47.07    \nframe=   44 fps=0.4 q=40.0 size=     256KiB time=00:00:00.84 bitrate=2497.0kbits/s speed=0.0078x elapsed=0:01:47.62    \nframe=   44 fps=0.4 q=40.0 size=     256KiB time=00:00:00.84 bitrate=2497.0kbits/s speed=0.00776x elapsed=0:01:48.19    \nframe=   45 fps=0.4 q=32.4 size=     256KiB time=00:00:00.86 bitrate=2439.0kbits/s speed=0.0079x elapsed=0:01:48.79    \nframe=   46 fps=0.4 q=39.7 size=     256KiB time=00:00:00.88 bitrate=2383.5kbits/s speed=0.00804x elapsed=0:01:49.41    \nframe=   46 fps=0.4 q=39.7 size=     256KiB time=00:00:00.88 bitrate=2383.5kbits/s speed=0.008x elapsed=0:01:50.01    \nframe=   46 fps=0.4 q=39.7 size=     256KiB time=00:00:00.88 bitrate=2383.5kbits/s speed=0.00795x elapsed=0:01:50.63    \nframe=   46 fps=0.4 q=39.7 size=     256KiB time=00:00:00.88 bitrate=2383.5kbits/s speed=0.00791x elapsed=0:01:51.19    \nframe=   46 fps=0.4 q=39.7 size=     256KiB time=00:00:00.88 bitrate=2383.5kbits/s speed=0.00788x elapsed=0:01:51.73    \nframe=   46 fps=0.4 q=39.7 size=     256KiB time=00:00:00.88 bitrate=2383.5kbits/s speed=0.00783x elapsed=0:01:52.36    \nframe=   47 fps=0.4 q=40.0 size=     256KiB time=00:00:00.90 bitrate=2330.6kbits/s speed=0.00797x elapsed=0:01:52.91    \nframe=   47 fps=0.4 q=40.0 size=     256KiB time=00:00:00.90 bitrate=2330.6kbits/s speed=0.00793x elapsed=0:01:53.50    \nframe=   47 fps=0.4 q=40.0 size=     256KiB time=00:00:00.90 bitrate=2330.6kbits/s speed=0.00789x elapsed=0:01:54.08    \nframe=   47 fps=0.4 q=40.0 size=     256KiB time=00:00:00.90 bitrate=2330.6kbits/s speed=0.00785x elapsed=0:01:54.67    \nframe=   47 fps=0.4 q=40.0 size=     256KiB time=00:00:00.90 bitrate=2330.6kbits/s speed=0.00781x elapsed=0:01:55.26    \nframe=   47 fps=0.4 q=40.0 size=     256KiB time=00:00:00.90 bitrate=2330.6kbits/s speed=0.00777x elapsed=0:01:55.81    \nframe=   47 fps=0.4 q=40.0 size=     256KiB time=00:00:00.90 bitrate=2330.6kbits/s speed=0.00774x elapsed=0:01:56.34    \nframe=   47 fps=0.4 q=40.0 size=     256KiB time=00:00:00.90 bitrate=2330.6kbits/s speed=0.0077x elapsed=0:01:56.95    \nframe=   48 fps=0.4 q=39.0 size=     256KiB time=00:00:00.92 bitrate=2279.9kbits/s speed=0.00783x elapsed=0:01:57.51    \nframe=   48 fps=0.4 q=39.0 size=     256KiB time=00:00:00.92 bitrate=2279.9kbits/s speed=0.00779x elapsed=0:01:58.06    \nframe=   48 fps=0.4 q=39.0 size=     256KiB time=00:00:00.92 bitrate=2279.9kbits/s speed=0.00775x elapsed=0:01:58.63    \nframe=   49 fps=0.4 q=32.0 size=     256KiB time=00:00:00.94 bitrate=2231.4kbits/s speed=0.00789x elapsed=0:01:59.16    \nframe=   50 fps=0.4 q=38.5 size=     256KiB time=00:00:00.96 bitrate=2184.9kbits/s speed=0.00802x elapsed=0:01:59.77    \nframe=   50 fps=0.4 q=38.5 size=     256KiB time=00:00:00.96 bitrate=2184.9kbits/s speed=0.00798x elapsed=0:02:00.35    \nframe=   51 fps=0.4 q=39.0 size=     256KiB time=00:00:00.98 bitrate=2140.3kbits/s speed=0.00811x elapsed=0:02:00.86    \nframe=   51 fps=0.4 q=39.0 size=     256KiB time=00:00:00.98 bitrate=2140.3kbits/s speed=0.00807x elapsed=0:02:01.43    \nframe=   51 fps=0.4 q=39.0 size=     256KiB time=00:00:00.98 bitrate=2140.3kbits/s speed=0.00803x elapsed=0:02:02.00    \nframe=   51 fps=0.4 q=39.0 size=     256KiB time=00:00:00.98 bitrate=2140.3kbits/s speed=0.008x elapsed=0:02:02.55    \nframe=   51 fps=0.4 q=39.0 size=     256KiB time=00:00:00.98 bitrate=2140.3kbits/s speed=0.00796x elapsed=0:02:03.07    \nframe=   52 fps=0.4 q=39.0 size=     256KiB time=00:00:01.00 bitrate=2097.5kbits/s speed=0.00809x elapsed=0:02:03.58    \nframe=   52 fps=0.4 q=39.0 size=     256KiB time=00:00:01.00 bitrate=2097.5kbits/s speed=0.00806x elapsed=0:02:04.11    \nframe=   53 fps=0.4 q=39.0 size=     256KiB time=00:00:01.02 bitrate=2056.4kbits/s speed=0.00818x elapsed=0:02:04.65    \nframe=   54 fps=0.4 q=31.4 size=     256KiB time=00:00:01.04 bitrate=2016.8kbits/s speed=0.00831x elapsed=0:02:05.20    \nframe=   54 fps=0.4 q=31.4 size=     256KiB time=00:00:01.04 bitrate=2016.8kbits/s speed=0.00827x elapsed=0:02:05.73    \nframe=   55 fps=0.4 q=38.3 size=     256KiB time=00:00:01.06 bitrate=1978.8kbits/s speed=0.00839x elapsed=0:02:06.29    \nframe=   55 fps=0.4 q=38.3 size=     256KiB time=00:00:01.06 bitrate=1978.8kbits/s speed=0.00836x elapsed=0:02:06.84    \nframe=   55 fps=0.4 q=38.3 size=     256KiB time=00:00:01.06 bitrate=1978.8kbits/s speed=0.00832x elapsed=0:02:07.42    \nframe=   55 fps=0.4 q=38.3 size=     256KiB time=00:00:01.06 bitrate=1978.8kbits/s speed=0.00828x elapsed=0:02:07.95    \nframe=   55 fps=0.4 q=38.3 size=     256KiB time=00:00:01.06 bitrate=1978.8kbits/s speed=0.00825x elapsed=0:02:08.50    \nframe=   55 fps=0.4 q=38.3 size=     256KiB time=00:00:01.06 bitrate=1978.8kbits/s speed=0.00821x elapsed=0:02:09.10    \nframe=   55 fps=0.4 q=38.3 size=     256KiB time=00:00:01.06 bitrate=1978.8kbits/s speed=0.00817x elapsed=0:02:09.68    \nframe=   55 fps=0.4 q=38.3 size=     256KiB time=00:00:01.06 bitrate=1978.8kbits/s speed=0.00814x elapsed=0:02:10.27    \nframe=   55 fps=0.4 q=38.3 size=     256KiB time=00:00:01.06 bitrate=1978.8kbits/s speed=0.0081x elapsed=0:02:10.84    \nframe=   55 fps=0.4 q=38.3 size=     256KiB time=00:00:01.06 bitrate=1978.8kbits/s speed=0.00807x elapsed=0:02:11.38    \nframe=   55 fps=0.4 q=38.3 size=     256KiB time=00:00:01.06 bitrate=1978.8kbits/s speed=0.00804x elapsed=0:02:11.91    \nframe=   55 fps=0.4 q=38.3 size=     256KiB time=00:00:01.06 bitrate=1978.8kbits/s speed=0.008x elapsed=0:02:12.52    \nframe=   55 fps=0.4 q=38.3 size=     256KiB time=00:00:01.06 bitrate=1978.8kbits/s speed=0.00796x elapsed=0:02:13.14    \nframe=   56 fps=0.4 q=40.0 size=     256KiB time=00:00:01.08 bitrate=1942.1kbits/s speed=0.00807x elapsed=0:02:13.76    \nframe=   56 fps=0.4 q=40.0 size=     256KiB time=00:00:01.08 bitrate=1942.1kbits/s speed=0.00804x elapsed=0:02:14.35    \nframe=   56 fps=0.4 q=40.0 size=     256KiB time=00:00:01.08 bitrate=1942.1kbits/s speed=0.00801x elapsed=0:02:14.91    \nframe=   57 fps=0.4 q=39.0 size=     256KiB time=00:00:01.10 bitrate=1906.8kbits/s speed=0.00812x elapsed=0:02:15.44    \nframe=   57 fps=0.4 q=39.0 size=     256KiB time=00:00:01.10 bitrate=1906.8kbits/s speed=0.00809x elapsed=0:02:15.99    \nframe=   57 fps=0.4 q=39.0 size=     256KiB time=00:00:01.10 bitrate=1906.8kbits/s speed=0.00805x elapsed=0:02:16.56    \nframe=   58 fps=0.4 q=39.0 size=     256KiB time=00:00:01.12 bitrate=1872.8kbits/s speed=0.00817x elapsed=0:02:17.13    \nframe=   58 fps=0.4 q=39.0 size=     256KiB time=00:00:01.12 bitrate=1872.8kbits/s speed=0.00813x elapsed=0:02:17.68    \nframe=   58 fps=0.4 q=39.0 size=     256KiB time=00:00:01.12 bitrate=1872.8kbits/s speed=0.0081x elapsed=0:02:18.20    \nframe=   58 fps=0.4 q=39.0 size=     256KiB time=00:00:01.12 bitrate=1872.8kbits/s speed=0.00807x elapsed=0:02:18.75    \nframe=   59 fps=0.4 q=31.1 size=     256KiB time=00:00:01.14 bitrate=1839.9kbits/s speed=0.00819x elapsed=0:02:19.26    \nframe=   59 fps=0.4 q=31.1 size=     256KiB time=00:00:01.14 bitrate=1839.9kbits/s speed=0.00815x elapsed=0:02:19.80    \nframe=   60 fps=0.4 q=38.0 size=     256KiB time=00:00:01.16 bitrate=1808.2kbits/s speed=0.00826x elapsed=0:02:20.35    \nframe=   61 fps=0.4 q=39.0 size=     256KiB time=00:00:01.18 bitrate=1777.5kbits/s speed=0.00837x elapsed=0:02:20.95    \nframe=   61 fps=0.4 q=39.0 size=     256KiB time=00:00:01.18 bitrate=1777.5kbits/s speed=0.00834x elapsed=0:02:21.49    \nframe=   61 fps=0.4 q=39.0 size=     256KiB time=00:00:01.18 bitrate=1777.5kbits/s speed=0.00831x elapsed=0:02:22.01    \nframe=   61 fps=0.4 q=39.0 size=     256KiB time=00:00:01.18 bitrate=1777.5kbits/s speed=0.00828x elapsed=0:02:22.53    \nframe=   61 fps=0.4 q=39.0 size=     256KiB time=00:00:01.18 bitrate=1777.5kbits/s speed=0.00825x elapsed=0:02:23.09    \nframe=   62 fps=0.4 q=39.0 size=     256KiB time=00:00:01.20 bitrate=1747.9kbits/s speed=0.00836x elapsed=0:02:23.60    \nframe=   62 fps=0.4 q=39.0 size=     256KiB time=00:00:01.20 bitrate=1747.9kbits/s speed=0.00833x elapsed=0:02:24.13    \nframe=   63 fps=0.4 q=38.9 size=     256KiB time=00:00:01.22 bitrate=1719.3kbits/s speed=0.00843x elapsed=0:02:24.68    \nframe=   64 fps=0.4 q=30.9 size=     256KiB time=00:00:01.24 bitrate=1691.5kbits/s speed=0.00854x elapsed=0:02:25.23    \nframe=   65 fps=0.4 q=38.0 size=     256KiB time=00:00:01.26 bitrate=1664.7kbits/s speed=0.00864x elapsed=0:02:25.76    \nframe=   65 fps=0.4 q=38.0 size=     256KiB time=00:00:01.26 bitrate=1664.7kbits/s speed=0.00861x elapsed=0:02:26.30    \nframe=   65 fps=0.4 q=38.0 size=     256KiB time=00:00:01.26 bitrate=1664.7kbits/s speed=0.00858x elapsed=0:02:26.89    \nframe=   66 fps=0.4 q=39.0 size=     256KiB time=00:00:01.28 bitrate=1638.7kbits/s speed=0.00868x elapsed=0:02:27.45    \nframe=   66 fps=0.4 q=39.0 size=     256KiB time=00:00:01.28 bitrate=1638.7kbits/s speed=0.00865x elapsed=0:02:27.98    \nframe=   66 fps=0.4 q=39.0 size=     256KiB time=00:00:01.28 bitrate=1638.7kbits/s speed=0.00862x elapsed=0:02:28.51    \nframe=   66 fps=0.4 q=39.0 size=     256KiB time=00:00:01.28 bitrate=1638.7kbits/s speed=0.00859x elapsed=0:02:29.03    \nframe=   66 fps=0.4 q=39.0 size=     256KiB time=00:00:01.28 bitrate=1638.7kbits/s speed=0.00855x elapsed=0:02:29.66    \nframe=   66 fps=0.4 q=39.0 size=     256KiB time=00:00:01.28 bitrate=1638.7kbits/s speed=0.00852x elapsed=0:02:30.31    \nframe=   66 fps=0.4 q=39.0 size=     256KiB time=00:00:01.28 bitrate=1638.7kbits/s speed=0.00848x elapsed=0:02:30.96    \nframe=   67 fps=0.4 q=38.0 size=     256KiB time=00:00:01.28 bitrate=1638.7kbits/s speed=0.00845x elapsed=0:02:31.55    \nframe=   68 fps=0.4 q=38.0 size=     256KiB time=00:00:01.32 bitrate=1589.0kbits/s speed=0.00868x elapsed=0:02:32.14    \nframe=   69 fps=0.5 q=30.3 size=     256KiB time=00:00:01.34 bitrate=1565.3kbits/s speed=0.00877x elapsed=0:02:32.72    \nframe=   69 fps=0.5 q=30.3 size=     256KiB time=00:00:01.34 bitrate=1565.3kbits/s speed=0.00874x elapsed=0:02:33.26    \nframe=   69 fps=0.4 q=30.3 size=     256KiB time=00:00:01.34 bitrate=1565.3kbits/s speed=0.00871x elapsed=0:02:33.79    \nframe=   69 fps=0.4 q=30.3 size=     256KiB time=00:00:01.34 bitrate=1565.3kbits/s speed=0.00868x elapsed=0:02:34.36    \nframe=   70 fps=0.5 q=37.0 size=     256KiB time=00:00:01.36 bitrate=1542.3kbits/s speed=0.00878x elapsed=0:02:34.91    \nframe=   71 fps=0.5 q=38.0 size=     256KiB time=00:00:01.38 bitrate=1519.9kbits/s speed=0.00888x elapsed=0:02:35.46    \nframe=   71 fps=0.5 q=38.0 size=     256KiB time=00:00:01.38 bitrate=1519.9kbits/s speed=0.00884x elapsed=0:02:36.06    \nframe=   71 fps=0.5 q=38.0 size=     256KiB time=00:00:01.38 bitrate=1519.9kbits/s speed=0.00881x elapsed=0:02:36.62    \nframe=   71 fps=0.5 q=38.0 size=     256KiB time=00:00:01.38 bitrate=1519.9kbits/s speed=0.00878x elapsed=0:02:37.21    \nframe=   71 fps=0.5 q=38.0 size=     256KiB time=00:00:01.38 bitrate=1519.9kbits/s speed=0.00875x elapsed=0:02:37.77    \nframe=   71 fps=0.4 q=38.0 size=     256KiB time=00:00:01.38 bitrate=1519.9kbits/s speed=0.00872x elapsed=0:02:38.31    \nframe=   71 fps=0.4 q=38.0 size=     256KiB time=00:00:01.38 bitrate=1519.9kbits/s speed=0.00869x elapsed=0:02:38.86    \nframe=   72 fps=0.5 q=37.0 size=     256KiB time=00:00:01.40 bitrate=1498.2kbits/s speed=0.00878x elapsed=0:02:39.45    \nframe=   73 fps=0.5 q=37.0 size=     256KiB time=00:00:01.42 bitrate=1477.1kbits/s speed=0.00887x elapsed=0:02:40.02    \nframe=   73 fps=0.5 q=37.0 size=     256KiB time=00:00:01.42 bitrate=1477.1kbits/s speed=0.00885x elapsed=0:02:40.54    \nframe=   73 fps=0.5 q=37.0 size=     256KiB time=00:00:01.42 bitrate=1477.1kbits/s speed=0.00881x elapsed=0:02:41.09    \nframe=   74 fps=0.5 q=30.8 size=     256KiB time=00:00:01.44 bitrate=1456.6kbits/s speed=0.0089x elapsed=0:02:41.72    \nframe=   74 fps=0.5 q=30.8 size=     256KiB time=00:00:01.44 bitrate=1456.6kbits/s speed=0.00887x elapsed=0:02:42.29    \nframe=   75 fps=0.5 q=36.8 size=     256KiB time=00:00:01.46 bitrate=1436.6kbits/s speed=0.00896x elapsed=0:02:42.86    \nframe=   75 fps=0.5 q=36.8 size=     256KiB time=00:00:01.46 bitrate=1436.6kbits/s speed=0.00893x elapsed=0:02:43.45    \nframe=   75 fps=0.5 q=36.8 size=     256KiB time=00:00:01.46 bitrate=1436.6kbits/s speed=0.0089x elapsed=0:02:44.03    \nframe=   76 fps=0.5 q=38.0 size=     256KiB time=00:00:01.48 bitrate=1417.2kbits/s speed=0.00899x elapsed=0:02:44.60    \nframe=   76 fps=0.5 q=38.0 size=     256KiB time=00:00:01.48 bitrate=1417.2kbits/s speed=0.00896x elapsed=0:02:45.18    \nframe=   76 fps=0.5 q=38.0 size=     256KiB time=00:00:01.48 bitrate=1417.2kbits/s speed=0.00893x elapsed=0:02:45.76    \nframe=   76 fps=0.5 q=38.0 size=     256KiB time=00:00:01.48 bitrate=1417.2kbits/s speed=0.0089x elapsed=0:02:46.32    \nframe=   76 fps=0.5 q=38.0 size=     256KiB time=00:00:01.48 bitrate=1417.2kbits/s speed=0.00887x elapsed=0:02:46.91    \nframe=   76 fps=0.5 q=38.0 size=     256KiB time=00:00:01.48 bitrate=1417.2kbits/s speed=0.00884x elapsed=0:02:47.46    \nframe=   76 fps=0.5 q=38.0 size=     256KiB time=00:00:01.48 bitrate=1417.2kbits/s speed=0.00881x elapsed=0:02:48.03    \nframe=   76 fps=0.5 q=38.0 size=     256KiB time=00:00:01.48 bitrate=1417.2kbits/s speed=0.00878x elapsed=0:02:48.62    \nframe=   76 fps=0.4 q=38.0 size=     256KiB time=00:00:01.48 bitrate=1417.2kbits/s speed=0.00875x elapsed=0:02:49.20    \nframe=   77 fps=0.5 q=37.9 size=     256KiB time=00:00:01.50 bitrate=1398.3kbits/s speed=0.00883x elapsed=0:02:49.78    \nframe=   77 fps=0.5 q=37.9 size=     256KiB time=00:00:01.50 bitrate=1398.3kbits/s speed=0.0088x elapsed=0:02:50.38    \nframe=   77 fps=0.5 q=37.9 size=     256KiB time=00:00:01.50 bitrate=1398.3kbits/s speed=0.00877x elapsed=0:02:50.94    \nframe=   78 fps=0.5 q=38.0 size=     256KiB time=00:00:01.52 bitrate=1379.9kbits/s speed=0.00886x elapsed=0:02:51.49    \nframe=   78 fps=0.5 q=38.0 size=     256KiB time=00:00:01.52 bitrate=1379.9kbits/s speed=0.00883x elapsed=0:02:52.06    \nframe=   78 fps=0.5 q=38.0 size=     256KiB time=00:00:01.52 bitrate=1379.9kbits/s speed=0.00881x elapsed=0:02:52.61    \nframe=   78 fps=0.5 q=38.0 size=     256KiB time=00:00:01.52 bitrate=1379.9kbits/s speed=0.00878x elapsed=0:02:53.16    \nframe=   79 fps=0.5 q=31.1 size=     256KiB time=00:00:01.54 bitrate=1362.0kbits/s speed=0.00887x elapsed=0:02:53.71    \nframe=   79 fps=0.5 q=31.1 size=     256KiB time=00:00:01.54 bitrate=1362.0kbits/s speed=0.00884x elapsed=0:02:54.27    \nframe=   79 fps=0.5 q=31.1 size=     256KiB time=00:00:01.54 bitrate=1362.0kbits/s speed=0.00881x elapsed=0:02:54.81    \nframe=   80 fps=0.5 q=36.9 size=     512KiB time=00:00:01.56 bitrate=2688.9kbits/s speed=0.00889x elapsed=0:02:55.39    \nframe=   81 fps=0.5 q=38.0 size=     512KiB time=00:00:01.58 bitrate=2654.8kbits/s speed=0.00898x elapsed=0:02:55.96    \nframe=   81 fps=0.5 q=38.0 size=     512KiB time=00:00:01.58 bitrate=2654.8kbits/s speed=0.00895x elapsed=0:02:56.52    \nframe=   81 fps=0.5 q=38.0 size=     512KiB time=00:00:01.58 bitrate=2654.8kbits/s speed=0.00892x elapsed=0:02:57.07    \nframe=   81 fps=0.5 q=38.0 size=     512KiB time=00:00:01.58 bitrate=2654.8kbits/s speed=0.00889x elapsed=0:02:57.68    \nframe=   82 fps=0.5 q=38.0 size=     512KiB time=00:00:01.60 bitrate=2621.7kbits/s speed=0.00898x elapsed=0:02:58.25    \nframe=   82 fps=0.5 q=38.0 size=     512KiB time=00:00:01.60 bitrate=2621.7kbits/s speed=0.00895x elapsed=0:02:58.83    \nframe=   83 fps=0.5 q=38.0 size=     512KiB time=00:00:01.62 bitrate=2589.3kbits/s speed=0.00903x elapsed=0:02:59.39    \nframe=   83 fps=0.5 q=38.0 size=     512KiB time=00:00:01.62 bitrate=2589.3kbits/s speed=0.009x elapsed=0:02:59.95    \nframe=   83 fps=0.5 q=38.0 size=     512KiB time=00:00:01.62 bitrate=2589.3kbits/s speed=0.00897x elapsed=0:03:00.52    \nframe=   84 fps=0.5 q=31.2 size=     512KiB time=00:00:01.64 bitrate=2557.7kbits/s speed=0.00906x elapsed=0:03:01.06    \nframe=   85 fps=0.5 q=36.8 size=     512KiB time=00:00:01.66 bitrate=2526.9kbits/s speed=0.00914x elapsed=0:03:01.60    \nframe=   86 fps=0.5 q=38.0 size=     512KiB time=00:00:01.68 bitrate=2496.8kbits/s speed=0.00922x elapsed=0:03:02.14    \nframe=   86 fps=0.5 q=38.0 size=     512KiB time=00:00:01.68 bitrate=2496.8kbits/s speed=0.00919x elapsed=0:03:02.72    \nframe=   86 fps=0.5 q=38.0 size=     512KiB time=00:00:01.68 bitrate=2496.8kbits/s speed=0.00917x elapsed=0:03:03.29    \nframe=   86 fps=0.5 q=38.0 size=     512KiB time=00:00:01.68 bitrate=2496.8kbits/s speed=0.00914x elapsed=0:03:03.83    \nframe=   86 fps=0.5 q=38.0 size=     512KiB time=00:00:01.68 bitrate=2496.8kbits/s speed=0.00911x elapsed=0:03:04.42    \nframe=   87 fps=0.5 q=38.0 size=     512KiB time=00:00:01.70 bitrate=2467.4kbits/s speed=0.00919x elapsed=0:03:05.04    \nframe=   87 fps=0.5 q=38.0 size=     512KiB time=00:00:01.70 bitrate=2467.4kbits/s speed=0.00916x elapsed=0:03:05.59    \nframe=   87 fps=0.5 q=38.0 size=     512KiB time=00:00:01.70 bitrate=2467.4kbits/s speed=0.00913x elapsed=0:03:06.15    \nframe=   87 fps=0.5 q=38.0 size=     512KiB time=00:00:01.70 bitrate=2467.4kbits/s speed=0.0091x elapsed=0:03:06.78    \nframe=   87 fps=0.5 q=38.0 size=     512KiB time=00:00:01.70 bitrate=2467.4kbits/s speed=0.00907x elapsed=0:03:07.37    \nframe=   87 fps=0.5 q=38.0 size=     512KiB time=00:00:01.70 bitrate=2467.4kbits/s speed=0.00905x elapsed=0:03:07.93    \nframe=   87 fps=0.5 q=38.0 size=     512KiB time=00:00:01.70 bitrate=2467.4kbits/s speed=0.00902x elapsed=0:03:08.48    \nframe=   88 fps=0.5 q=38.0 size=     512KiB time=00:00:01.72 bitrate=2438.8kbits/s speed=0.0091x elapsed=0:03:09.03    \nframe=   89 fps=0.5 q=31.3 size=     512KiB time=00:00:01.74 bitrate=2410.7kbits/s speed=0.00918x elapsed=0:03:09.57    \nframe=   90 fps=0.5 q=37.9 size=     512KiB time=00:00:01.76 bitrate=2383.3kbits/s speed=0.00926x elapsed=0:03:10.14    \nframe=   90 fps=0.5 q=37.9 size=     512KiB time=00:00:01.76 bitrate=2383.3kbits/s speed=0.00923x elapsed=0:03:10.68    \nframe=   91 fps=0.5 q=39.0 size=     512KiB time=00:00:01.78 bitrate=2356.5kbits/s speed=0.00931x elapsed=0:03:11.21    \nframe=   91 fps=0.5 q=39.0 size=     512KiB time=00:00:01.78 bitrate=2356.5kbits/s speed=0.00928x elapsed=0:03:11.72    \nframe=   91 fps=0.5 q=39.0 size=     512KiB time=00:00:01.78 bitrate=2356.5kbits/s speed=0.00926x elapsed=0:03:12.26    \nframe=   92 fps=0.5 q=39.0 size=     512KiB time=00:00:01.80 bitrate=2330.4kbits/s speed=0.00934x elapsed=0:03:12.81    \nframe=   92 fps=0.5 q=39.0 size=     512KiB time=00:00:01.80 bitrate=2330.4kbits/s speed=0.00931x elapsed=0:03:13.39    \nframe=   92 fps=0.5 q=39.0 size=     512KiB time=00:00:01.80 bitrate=2330.4kbits/s speed=0.00928x elapsed=0:03:13.97    \nframe=   92 fps=0.5 q=39.0 size=     512KiB time=00:00:01.80 bitrate=2330.4kbits/s speed=0.00925x elapsed=0:03:14.53    \nframe=   93 fps=0.5 q=30.9 size=     512KiB time=00:00:01.82 bitrate=2304.8kbits/s speed=0.00933x elapsed=0:03:15.08    \nframe=   93 fps=0.5 q=30.9 size=     512KiB time=00:00:01.82 bitrate=2304.8kbits/s speed=0.0093x elapsed=0:03:15.62    \nframe=   93 fps=0.5 q=30.9 size=     512KiB time=00:00:01.82 bitrate=2304.8kbits/s speed=0.00928x elapsed=0:03:16.17    \nframe=   94 fps=0.5 q=38.0 size=     512KiB time=00:00:01.84 bitrate=2279.7kbits/s speed=0.00935x elapsed=0:03:16.73    \nframe=   94 fps=0.5 q=38.0 size=     512KiB time=00:00:01.84 bitrate=2279.7kbits/s speed=0.00933x elapsed=0:03:17.26    \nframe=   94 fps=0.5 q=38.0 size=     512KiB time=00:00:01.84 bitrate=2279.7kbits/s speed=0.0093x elapsed=0:03:17.79    \nframe=   94 fps=0.5 q=38.0 size=     512KiB time=00:00:01.84 bitrate=2279.7kbits/s speed=0.00928x elapsed=0:03:18.32    \nframe=   94 fps=0.5 q=38.0 size=     512KiB time=00:00:01.84 bitrate=2279.7kbits/s speed=0.00925x elapsed=0:03:18.85    \nframe=   94 fps=0.5 q=38.0 size=     512KiB time=00:00:01.84 bitrate=2279.7kbits/s speed=0.00923x elapsed=0:03:19.40    \nframe=   94 fps=0.5 q=38.0 size=     512KiB time=00:00:01.84 bitrate=2279.7kbits/s speed=0.0092x elapsed=0:03:19.91    \nframe=   94 fps=0.5 q=38.0 size=     512KiB time=00:00:01.84 bitrate=2279.7kbits/s speed=0.00918x elapsed=0:03:20.47    \nframe=   95 fps=0.5 q=39.0 size=     512KiB time=00:00:01.86 bitrate=2255.2kbits/s speed=0.00925x elapsed=0:03:21.02    \nframe=   95 fps=0.5 q=39.0 size=     512KiB time=00:00:01.86 bitrate=2255.2kbits/s speed=0.00923x elapsed=0:03:21.60    \nframe=   95 fps=0.5 q=39.0 size=     512KiB time=00:00:01.86 bitrate=2255.2kbits/s speed=0.0092x elapsed=0:03:22.19    \nframe=   97 fps=0.5 q=31.4 size=     512KiB time=00:00:01.90 bitrate=2207.7kbits/s speed=0.00937x elapsed=0:03:22.76    \nframe=   97 fps=0.5 q=31.4 size=     512KiB time=00:00:01.90 bitrate=2207.7kbits/s speed=0.00935x elapsed=0:03:23.30    \nframe=   97 fps=0.5 q=31.4 size=     512KiB time=00:00:01.90 bitrate=2207.7kbits/s speed=0.00932x elapsed=0:03:23.84    \nframe=   98 fps=0.5 q=39.0 size=     512KiB time=00:00:01.92 bitrate=2184.7kbits/s speed=0.00939x elapsed=0:03:24.37    \nframe=   98 fps=0.5 q=39.0 size=     512KiB time=00:00:01.92 bitrate=2184.7kbits/s speed=0.00937x elapsed=0:03:24.91    \nframe=   98 fps=0.5 q=39.0 size=     512KiB time=00:00:01.92 bitrate=2184.7kbits/s speed=0.00934x elapsed=0:03:25.46    \nframe=   98 fps=0.5 q=39.0 size=     512KiB time=00:00:01.92 bitrate=2184.7kbits/s speed=0.00932x elapsed=0:03:25.99    \nframe=   98 fps=0.5 q=39.0 size=     512KiB time=00:00:01.92 bitrate=2184.7kbits/s speed=0.0093x elapsed=0:03:26.53    \nframe=  100 fps=0.5 q=39.0 size=     512KiB time=00:00:01.96 bitrate=2140.1kbits/s speed=0.00946x elapsed=0:03:27.13    \nframe=  100 fps=0.5 q=39.0 size=     512KiB time=00:00:01.96 bitrate=2140.1kbits/s speed=0.00944x elapsed=0:03:27.72    \nframe=  100 fps=0.5 q=39.0 size=     512KiB time=00:00:01.96 bitrate=2140.1kbits/s speed=0.00941x elapsed=0:03:28.29    \nframe=  100 fps=0.5 q=39.0 size=     512KiB time=00:00:01.96 bitrate=2140.1kbits/s speed=0.00939x elapsed=0:03:28.83    \nframe=  100 fps=0.5 q=39.0 size=     512KiB time=00:00:01.96 bitrate=2140.1kbits/s speed=0.00936x elapsed=0:03:29.38    \nframe=  101 fps=0.5 q=31.8 size=     512KiB time=00:00:01.98 bitrate=2118.5kbits/s speed=0.00943x elapsed=0:03:29.94    \nframe=  101 fps=0.5 q=31.8 size=     512KiB time=00:00:01.98 bitrate=2118.5kbits/s speed=0.00941x elapsed=0:03:30.48    \nframe=  101 fps=0.5 q=31.8 size=     512KiB time=00:00:01.98 bitrate=2118.5kbits/s speed=0.00938x elapsed=0:03:31.05    \nframe=  101 fps=0.5 q=31.8 size=     512KiB time=00:00:01.98 bitrate=2118.5kbits/s speed=0.00936x elapsed=0:03:31.61    \nframe=  102 fps=0.5 q=38.0 size=     512KiB time=00:00:02.00 bitrate=2097.3kbits/s speed=0.00943x elapsed=0:03:32.14    \nframe=  102 fps=0.5 q=38.0 size=     512KiB time=00:00:02.00 bitrate=2097.3kbits/s speed=0.0094x elapsed=0:03:32.68    \nframe=  102 fps=0.5 q=38.0 size=     512KiB time=00:00:02.00 bitrate=2097.3kbits/s speed=0.00938x elapsed=0:03:33.25    \nframe=  103 fps=0.5 q=40.0 size=     512KiB time=00:00:02.02 bitrate=2076.6kbits/s speed=0.00945x elapsed=0:03:33.78    \nframe=  103 fps=0.5 q=40.0 size=     512KiB time=00:00:02.02 bitrate=2076.6kbits/s speed=0.00942x elapsed=0:03:34.33    \nframe=  104 fps=0.5 q=38.9 size=     512KiB time=00:00:02.04 bitrate=2056.2kbits/s speed=0.00949x elapsed=0:03:34.87    \nframe=  104 fps=0.5 q=38.9 size=     512KiB time=00:00:02.04 bitrate=2056.2kbits/s speed=0.00947x elapsed=0:03:35.41    \nframe=  104 fps=0.5 q=38.9 size=     512KiB time=00:00:02.04 bitrate=2056.2kbits/s speed=0.00945x elapsed=0:03:35.94    \nframe=  105 fps=0.5 q=38.0 size=     512KiB time=00:00:02.06 bitrate=2036.2kbits/s speed=0.00952x elapsed=0:03:36.49    \nframe=  105 fps=0.5 q=38.0 size=     512KiB time=00:00:02.06 bitrate=2036.2kbits/s speed=0.00949x elapsed=0:03:37.03    \nframe=  105 fps=0.5 q=38.0 size=     512KiB time=00:00:02.06 bitrate=2036.2kbits/s speed=0.00947x elapsed=0:03:37.59    \nframe=  106 fps=0.5 q=31.1 size=     512KiB time=00:00:02.08 bitrate=2016.7kbits/s speed=0.00954x elapsed=0:03:38.12    \nframe=  106 fps=0.5 q=31.1 size=     512KiB time=00:00:02.08 bitrate=2016.7kbits/s speed=0.00951x elapsed=0:03:38.67    \nframe=  107 fps=0.5 q=37.6 size=     512KiB time=00:00:02.10 bitrate=1997.5kbits/s speed=0.00958x elapsed=0:03:39.21    \nframe=  107 fps=0.5 q=37.6 size=     512KiB time=00:00:02.10 bitrate=1997.5kbits/s speed=0.00956x elapsed=0:03:39.74    \nframe=  108 fps=0.5 q=38.0 size=     512KiB time=00:00:02.12 bitrate=1978.6kbits/s speed=0.00962x elapsed=0:03:40.29    \nframe=  108 fps=0.5 q=38.0 size=     512KiB time=00:00:02.12 bitrate=1978.6kbits/s speed=0.0096x elapsed=0:03:40.81    \nframe=  109 fps=0.5 q=39.0 size=     512KiB time=00:00:02.14 bitrate=1960.1kbits/s speed=0.00967x elapsed=0:03:41.37    \nframe=  109 fps=0.5 q=39.0 size=     512KiB time=00:00:02.14 bitrate=1960.1kbits/s speed=0.00964x elapsed=0:03:41.91    \nframe=  109 fps=0.5 q=39.0 size=     512KiB time=00:00:02.14 bitrate=1960.1kbits/s speed=0.00962x elapsed=0:03:42.44    \nframe=  109 fps=0.5 q=39.0 size=     512KiB time=00:00:02.14 bitrate=1960.1kbits/s speed=0.0096x elapsed=0:03:42.97    \nframe=  110 fps=0.5 q=38.0 size=     512KiB time=00:00:02.16 bitrate=1942.0kbits/s speed=0.00966x elapsed=0:03:43.51    \nframe=  110 fps=0.5 q=38.0 size=     512KiB time=00:00:02.16 bitrate=1942.0kbits/s speed=0.00964x elapsed=0:03:44.04    \nframe=  111 fps=0.5 q=30.5 size=     512KiB time=00:00:02.18 bitrate=1924.2kbits/s speed=0.00971x elapsed=0:03:44.55    \nframe=  111 fps=0.5 q=30.5 size=     512KiB time=00:00:02.18 bitrate=1924.2kbits/s speed=0.00969x elapsed=0:03:45.08    \nframe=  111 fps=0.5 q=30.5 size=     512KiB time=00:00:02.18 bitrate=1924.2kbits/s speed=0.00966x elapsed=0:03:45.61    \nframe=  111 fps=0.5 q=30.5 size=     512KiB time=00:00:02.18 bitrate=1924.2kbits/s speed=0.00964x elapsed=0:03:46.13    \nframe=  111 fps=0.5 q=30.5 size=     512KiB time=00:00:02.18 bitrate=1924.2kbits/s speed=0.00962x elapsed=0:03:46.66    \nframe=  112 fps=0.5 q=37.5 size=     512KiB time=00:00:02.20 bitrate=1906.7kbits/s speed=0.00968x elapsed=0:03:47.26    \nframe=  113 fps=0.5 q=38.9 size=     512KiB time=00:00:02.20 bitrate=1906.7kbits/s speed=0.00965x elapsed=0:03:47.88    \nframe=  113 fps=0.5 q=38.9 size=     512KiB time=00:00:02.22 bitrate=1889.5kbits/s speed=0.00972x elapsed=0:03:48.46    \nframe=  113 fps=0.5 q=38.9 size=     512KiB time=00:00:02.22 bitrate=1889.5kbits/s speed=0.00969x elapsed=0:03:49.02    \nframe=  113 fps=0.5 q=38.9 size=     512KiB time=00:00:02.22 bitrate=1889.5kbits/s speed=0.00967x elapsed=0:03:49.60    \nframe=  113 fps=0.5 q=38.9 size=     512KiB time=00:00:02.22 bitrate=1889.5kbits/s speed=0.00965x elapsed=0:03:50.16    \nframe=  113 fps=0.5 q=38.9 size=     512KiB time=00:00:02.22 bitrate=1889.5kbits/s speed=0.00962x elapsed=0:03:50.73    \nframe=  114 fps=0.5 q=38.0 size=     512KiB time=00:00:02.24 bitrate=1872.6kbits/s speed=0.00969x elapsed=0:03:51.26    \nframe=  114 fps=0.5 q=38.0 size=     512KiB time=00:00:02.24 bitrate=1872.6kbits/s speed=0.00966x elapsed=0:03:51.77    \nframe=  115 fps=0.5 q=38.0 size=     512KiB time=00:00:02.26 bitrate=1856.0kbits/s speed=0.00973x elapsed=0:03:52.29    \nframe=  117 fps=0.5 q=37.0 size=     768KiB time=00:00:02.30 bitrate=2735.6kbits/s speed=0.00988x elapsed=0:03:52.82    \nframe=  117 fps=0.5 q=37.0 size=     768KiB time=00:00:02.30 bitrate=2735.6kbits/s speed=0.00986x elapsed=0:03:53.34    \nframe=  118 fps=0.5 q=38.0 size=     768KiB time=00:00:02.32 bitrate=2712.0kbits/s speed=0.00992x elapsed=0:03:53.85    \nframe=  119 fps=0.5 q=37.9 size=     768KiB time=00:00:02.34 bitrate=2688.8kbits/s speed=0.00998x elapsed=0:03:54.39    \nframe=  120 fps=0.5 q=38.0 size=     768KiB time=00:00:02.34 bitrate=2688.8kbits/s speed=0.00996x elapsed=0:03:54.92    \nframe=  120 fps=0.5 q=38.0 size=     768KiB time=00:00:02.36 bitrate=2666.0kbits/s speed=0.01x elapsed=0:03:55.47    \nframe=  121 fps=0.5 q=31.1 size=     768KiB time=00:00:02.38 bitrate=2643.6kbits/s speed=0.0101x elapsed=0:03:55.98    \nframe=  123 fps=0.5 q=38.0 size=     768KiB time=00:00:02.42 bitrate=2599.9kbits/s speed=0.0102x elapsed=0:03:56.49    \nframe=  123 fps=0.5 q=38.0 size=     768KiB time=00:00:02.42 bitrate=2599.9kbits/s speed=0.0102x elapsed=0:03:57.00    \nframe=  125 fps=0.5 q=38.0 size=     768KiB time=00:00:02.46 bitrate=2557.6kbits/s speed=0.0104x elapsed=0:03:57.53    \nframe=  126 fps=0.5 q=31.0 size=     768KiB time=00:00:02.46 bitrate=2557.6kbits/s speed=0.0103x elapsed=0:03:58.04    \nframe=  127 fps=0.5 q=37.8 size=     768KiB time=00:00:02.50 bitrate=2516.7kbits/s speed=0.0105x elapsed=0:03:58.59    \nframe=  128 fps=0.5 q=39.0 size=     768KiB time=00:00:02.52 bitrate=2496.7kbits/s speed=0.0105x elapsed=0:03:59.10    \nframe=  129 fps=0.5 q=38.0 size=     768KiB time=00:00:02.54 bitrate=2477.1kbits/s speed=0.0106x elapsed=0:03:59.62    \nframe=  130 fps=0.5 q=38.0 size=     768KiB time=00:00:02.56 bitrate=2457.7kbits/s speed=0.0107x elapsed=0:04:00.17    \nframe=  130 fps=0.5 q=38.0 size=     768KiB time=00:00:02.56 bitrate=2457.7kbits/s speed=0.0106x elapsed=0:04:00.72    \nframe=  130 fps=0.5 q=38.0 size=     768KiB time=00:00:02.56 bitrate=2457.7kbits/s speed=0.0106x elapsed=0:04:01.25    \nframe=  130 fps=0.5 q=38.0 size=     768KiB time=00:00:02.56 bitrate=2457.7kbits/s speed=0.0106x elapsed=0:04:01.79    \nframe=  131 fps=0.5 q=30.0 size=     768KiB time=00:00:02.58 bitrate=2438.7kbits/s speed=0.0106x elapsed=0:04:02.33    \nframe=  132 fps=0.5 q=36.9 size=     768KiB time=00:00:02.60 bitrate=2419.9kbits/s speed=0.0107x elapsed=0:04:02.87    \nframe=  132 fps=0.5 q=36.9 size=     768KiB time=00:00:02.60 bitrate=2419.9kbits/s speed=0.0107x elapsed=0:04:03.43    \nframe=  132 fps=0.5 q=36.9 size=     768KiB time=00:00:02.60 bitrate=2419.9kbits/s speed=0.0107x elapsed=0:04:03.99    \nframe=  133 fps=0.5 q=38.0 size=     768KiB time=00:00:02.62 bitrate=2401.5kbits/s speed=0.0107x elapsed=0:04:04.54    \nframe=  133 fps=0.5 q=38.0 size=     768KiB time=00:00:02.62 bitrate=2401.5kbits/s speed=0.0107x elapsed=0:04:05.09    \nframe=  133 fps=0.5 q=38.0 size=     768KiB time=00:00:02.62 bitrate=2401.5kbits/s speed=0.0107x elapsed=0:04:05.65    \nframe=  134 fps=0.5 q=37.0 size=     768KiB time=00:00:02.64 bitrate=2383.3kbits/s speed=0.0107x elapsed=0:04:06.20    \nframe=  134 fps=0.5 q=37.0 size=     768KiB time=00:00:02.64 bitrate=2383.3kbits/s speed=0.0107x elapsed=0:04:06.75    \nframe=  135 fps=0.5 q=37.0 size=     768KiB time=00:00:02.66 bitrate=2365.3kbits/s speed=0.0108x elapsed=0:04:07.32    \nframe=  136 fps=0.5 q=29.6 size=     768KiB time=00:00:02.68 bitrate=2347.7kbits/s speed=0.0108x elapsed=0:04:07.87    \nframe=  137 fps=0.6 q=35.7 size=     768KiB time=00:00:02.70 bitrate=2330.3kbits/s speed=0.0109x elapsed=0:04:08.43    \nframe=  137 fps=0.6 q=35.7 size=     768KiB time=00:00:02.70 bitrate=2330.3kbits/s speed=0.0108x elapsed=0:04:08.98    \nframe=  138 fps=0.6 q=37.0 size=     768KiB time=00:00:02.72 bitrate=2313.2kbits/s speed=0.0109x elapsed=0:04:09.53    \nframe=  138 fps=0.6 q=37.0 size=     768KiB time=00:00:02.72 bitrate=2313.2kbits/s speed=0.0109x elapsed=0:04:10.08    \nframe=  139 fps=0.6 q=37.0 size=     768KiB time=00:00:02.74 bitrate=2296.3kbits/s speed=0.0109x elapsed=0:04:10.67    \nframe=  139 fps=0.6 q=37.0 size=     768KiB time=00:00:02.74 bitrate=2296.3kbits/s speed=0.0109x elapsed=0:04:11.19    \nframe=  140 fps=0.6 q=29.6 size=     768KiB time=00:00:02.76 bitrate=2279.6kbits/s speed=0.011x elapsed=0:04:11.74    \nframe=  140 fps=0.6 q=29.6 size=     768KiB time=00:00:02.76 bitrate=2279.6kbits/s speed=0.0109x elapsed=0:04:12.29    \nframe=  140 fps=0.6 q=29.6 size=     768KiB time=00:00:02.76 bitrate=2279.6kbits/s speed=0.0109x elapsed=0:04:12.82    \nframe=  140 fps=0.6 q=29.6 size=     768KiB time=00:00:02.76 bitrate=2279.6kbits/s speed=0.0109x elapsed=0:04:13.35    \nframe=  140 fps=0.6 q=29.6 size=     768KiB time=00:00:02.76 bitrate=2279.6kbits/s speed=0.0109x elapsed=0:04:13.87    \nframe=  140 fps=0.6 q=29.6 size=     768KiB time=00:00:02.76 bitrate=2279.6kbits/s speed=0.0108x elapsed=0:04:14.39    \nframe=  141 fps=0.6 q=35.2 size=     768KiB time=00:00:02.78 bitrate=2263.2kbits/s speed=0.0109x elapsed=0:04:14.92    \nframe=  142 fps=0.6 q=36.0 size=     768KiB time=00:00:02.80 bitrate=2247.1kbits/s speed=0.011x elapsed=0:04:15.44    \nframe=  143 fps=0.6 q=37.0 size=     768KiB time=00:00:02.82 bitrate=2231.1kbits/s speed=0.011x elapsed=0:04:15.98    \nframe=  143 fps=0.6 q=37.0 size=     768KiB time=00:00:02.82 bitrate=2231.1kbits/s speed=0.011x elapsed=0:04:16.57    \nframe=  143 fps=0.6 q=37.0 size=     768KiB time=00:00:02.82 bitrate=2231.1kbits/s speed=0.011x elapsed=0:04:17.15    \nframe=  143 fps=0.6 q=37.0 size=     768KiB time=00:00:02.82 bitrate=2231.1kbits/s speed=0.0109x elapsed=0:04:17.70    \nframe=  144 fps=0.6 q=36.0 size=     768KiB time=00:00:02.84 bitrate=2215.4kbits/s speed=0.011x elapsed=0:04:18.26    \nframe=  144 fps=0.6 q=36.0 size=     768KiB time=00:00:02.84 bitrate=2215.4kbits/s speed=0.011x elapsed=0:04:18.78    \nframe=  144 fps=0.6 q=36.0 size=     768KiB time=00:00:02.84 bitrate=2215.4kbits/s speed=0.011x elapsed=0:04:19.30    \nframe=  145 fps=0.6 q=29.3 size=     768KiB time=00:00:02.86 bitrate=2199.9kbits/s speed=0.011x elapsed=0:04:19.89    \nframe=  146 fps=0.6 q=35.8 size=     768KiB time=00:00:02.88 bitrate=2184.7kbits/s speed=0.0111x elapsed=0:04:20.41    \nframe=  146 fps=0.6 q=35.8 size=     768KiB time=00:00:02.88 bitrate=2184.7kbits/s speed=0.011x elapsed=0:04:20.98    \nframe=  146 fps=0.6 q=35.8 size=     768KiB time=00:00:02.88 bitrate=2184.7kbits/s speed=0.011x elapsed=0:04:21.51    \nframe=  147 fps=0.6 q=37.0 size=     768KiB time=00:00:02.90 bitrate=2169.6kbits/s speed=0.0111x elapsed=0:04:22.04    \nframe=  147 fps=0.6 q=37.0 size=     768KiB time=00:00:02.90 bitrate=2169.6kbits/s speed=0.011x elapsed=0:04:22.56    \nframe=  147 fps=0.6 q=37.0 size=     768KiB time=00:00:02.90 bitrate=2169.6kbits/s speed=0.011x elapsed=0:04:23.16    \nframe=  148 fps=0.6 q=37.0 size=     768KiB time=00:00:02.92 bitrate=2154.7kbits/s speed=0.0111x elapsed=0:04:23.74    \nframe=  148 fps=0.6 q=37.0 size=     768KiB time=00:00:02.92 bitrate=2154.7kbits/s speed=0.011x elapsed=0:04:24.31    \nframe=  149 fps=0.6 q=29.8 size=     768KiB time=00:00:02.94 bitrate=2140.1kbits/s speed=0.0111x elapsed=0:04:24.84    \nframe=  149 fps=0.6 q=29.8 size=     768KiB time=00:00:02.94 bitrate=2140.1kbits/s speed=0.0111x elapsed=0:04:25.35    \nframe=  150 fps=0.6 q=35.2 size=    1024KiB time=00:00:02.96 bitrate=2834.1kbits/s speed=0.0111x elapsed=0:04:25.93    \nframe=  151 fps=0.6 q=37.0 size=    1024KiB time=00:00:02.98 bitrate=2815.1kbits/s speed=0.0112x elapsed=0:04:26.49    \nframe=  152 fps=0.6 q=36.9 size=    1024KiB time=00:00:03.00 bitrate=2796.3kbits/s speed=0.0112x elapsed=0:04:27.01    \nframe=  152 fps=0.6 q=36.9 size=    1024KiB time=00:00:03.00 bitrate=2796.3kbits/s speed=0.0112x elapsed=0:04:27.59    \nframe=  152 fps=0.6 q=36.9 size=    1024KiB time=00:00:03.00 bitrate=2796.3kbits/s speed=0.0112x elapsed=0:04:28.11    \nframe=  153 fps=0.6 q=37.0 size=    1024KiB time=00:00:03.02 bitrate=2777.8kbits/s speed=0.0112x elapsed=0:04:28.66    \nframe=  153 fps=0.6 q=37.0 size=    1024KiB time=00:00:03.02 bitrate=2777.8kbits/s speed=0.0112x elapsed=0:04:29.18    \nframe=  153 fps=0.6 q=37.0 size=    1024KiB time=00:00:03.02 bitrate=2777.8kbits/s speed=0.0112x elapsed=0:04:29.70    \nframe=  154 fps=0.6 q=30.2 size=    1024KiB time=00:00:03.04 bitrate=2759.5kbits/s speed=0.0112x elapsed=0:04:30.22    \nframe=  154 fps=0.6 q=30.2 size=    1024KiB time=00:00:03.04 bitrate=2759.5kbits/s speed=0.0112x elapsed=0:04:30.75    \nframe=  155 fps=0.6 q=30.9 size=    1024KiB time=00:00:03.06 bitrate=2741.5kbits/s speed=0.0113x elapsed=0:04:31.26    \nframe=  156 fps=0.6 q=38.0 size=    1024KiB time=00:00:03.08 bitrate=2723.7kbits/s speed=0.0113x elapsed=0:04:31.82    \nframe=  157 fps=0.6 q=37.0 size=    1024KiB time=00:00:03.10 bitrate=2706.1kbits/s speed=0.0114x elapsed=0:04:32.34    \nframe=  157 fps=0.6 q=37.0 size=    1024KiB time=00:00:03.10 bitrate=2706.1kbits/s speed=0.0114x elapsed=0:04:32.90    \nframe=  157 fps=0.6 q=37.0 size=    1024KiB time=00:00:03.10 bitrate=2706.1kbits/s speed=0.0113x elapsed=0:04:33.44    \nframe=  157 fps=0.6 q=37.0 size=    1024KiB time=00:00:03.10 bitrate=2706.1kbits/s speed=0.0113x elapsed=0:04:33.97    \nframe=  159 fps=0.6 q=29.6 size=    1024KiB time=00:00:03.14 bitrate=2671.6kbits/s speed=0.0114x elapsed=0:04:34.50    \nframe=  160 fps=0.6 q=36.7 size=    1024KiB time=00:00:03.16 bitrate=2654.7kbits/s speed=0.0115x elapsed=0:04:35.02    \nframe=  161 fps=0.6 q=37.9 size=    1024KiB time=00:00:03.18 bitrate=2638.0kbits/s speed=0.0115x elapsed=0:04:35.59    \nframe=  161 fps=0.6 q=37.9 size=    1024KiB time=00:00:03.18 bitrate=2638.0kbits/s speed=0.0115x elapsed=0:04:36.15    \nframe=  161 fps=0.6 q=37.9 size=    1024KiB time=00:00:03.18 bitrate=2638.0kbits/s speed=0.0115x elapsed=0:04:36.72    \nframe=  161 fps=0.6 q=37.9 size=    1024KiB time=00:00:03.18 bitrate=2638.0kbits/s speed=0.0115x elapsed=0:04:37.28    \nframe=  162 fps=0.6 q=37.0 size=    1024KiB time=00:00:03.18 bitrate=2638.0kbits/s speed=0.0114x elapsed=0:04:37.83    \nframe=  162 fps=0.6 q=37.0 size=    1024KiB time=00:00:03.20 bitrate=2621.6kbits/s speed=0.0115x elapsed=0:04:38.39    \nframe=  162 fps=0.6 q=37.0 size=    1024KiB time=00:00:03.20 bitrate=2621.6kbits/s speed=0.0115x elapsed=0:04:38.91    \nframe=  163 fps=0.6 q=36.9 size=    1024KiB time=00:00:03.22 bitrate=2605.3kbits/s speed=0.0115x elapsed=0:04:39.47    \nframe=  163 fps=0.6 q=36.9 size=    1024KiB time=00:00:03.22 bitrate=2605.3kbits/s speed=0.0115x elapsed=0:04:40.03    \nframe=  163 fps=0.6 q=36.9 size=    1024KiB time=00:00:03.22 bitrate=2605.3kbits/s speed=0.0115x elapsed=0:04:40.56    \nframe=  164 fps=0.6 q=29.5 size=    1024KiB time=00:00:03.24 bitrate=2589.2kbits/s speed=0.0115x elapsed=0:04:41.11    \nframe=  165 fps=0.6 q=35.6 size=    1024KiB time=00:00:03.26 bitrate=2573.3kbits/s speed=0.0116x elapsed=0:04:41.66    \nframe=  165 fps=0.6 q=35.6 size=    1024KiB time=00:00:03.26 bitrate=2573.3kbits/s speed=0.0116x elapsed=0:04:42.18    \nframe=  166 fps=0.6 q=36.9 size=    1024KiB time=00:00:03.28 bitrate=2557.6kbits/s speed=0.0116x elapsed=0:04:42.72    \nframe=  166 fps=0.6 q=36.9 size=    1024KiB time=00:00:03.28 bitrate=2557.6kbits/s speed=0.0116x elapsed=0:04:43.25    \nframe=  167 fps=0.6 q=37.0 size=    1024KiB time=00:00:03.30 bitrate=2542.1kbits/s speed=0.0116x elapsed=0:04:43.78    \nframe=  168 fps=0.6 q=29.2 size=    1024KiB time=00:00:03.32 bitrate=2526.8kbits/s speed=0.0117x elapsed=0:04:44.30    \nframe=  168 fps=0.6 q=29.2 size=    1024KiB time=00:00:03.32 bitrate=2526.8kbits/s speed=0.0117x elapsed=0:04:44.82    \nframe=  169 fps=0.6 q=35.3 size=    1024KiB time=00:00:03.34 bitrate=2511.7kbits/s speed=0.0117x elapsed=0:04:45.34    \nframe=  170 fps=0.6 q=35.9 size=    1024KiB time=00:00:03.36 bitrate=2496.7kbits/s speed=0.0118x elapsed=0:04:45.85    \nframe=  170 fps=0.6 q=35.9 size=    1024KiB time=00:00:03.36 bitrate=2496.7kbits/s speed=0.0117x elapsed=0:04:46.37    \nframe=  172 fps=0.6 q=35.9 size=    1024KiB time=00:00:03.40 bitrate=2467.3kbits/s speed=0.0119x elapsed=0:04:46.89    \nframe=  172 fps=0.6 q=35.9 size=    1024KiB time=00:00:03.40 bitrate=2467.3kbits/s speed=0.0118x elapsed=0:04:47.40    \nframe=  172 fps=0.6 q=35.9 size=    1024KiB time=00:00:03.40 bitrate=2467.3kbits/s speed=0.0118x elapsed=0:04:47.93    \nframe=  173 fps=0.6 q=29.5 size=    1024KiB time=00:00:03.42 bitrate=2452.9kbits/s speed=0.0119x elapsed=0:04:48.50    \nframe=  174 fps=0.6 q=34.9 size=    1024KiB time=00:00:03.44 bitrate=2438.7kbits/s speed=0.0119x elapsed=0:04:49.04    \nframe=  175 fps=0.6 q=37.0 size=    1024KiB time=00:00:03.46 bitrate=2424.6kbits/s speed=0.0119x elapsed=0:04:49.58    \nframe=  176 fps=0.6 q=37.0 size=    1024KiB time=00:00:03.48 bitrate=2410.6kbits/s speed=0.012x elapsed=0:04:50.12    \nframe=  176 fps=0.6 q=37.0 size=    1024KiB time=00:00:03.48 bitrate=2410.6kbits/s speed=0.012x elapsed=0:04:50.65    \nframe=  177 fps=0.6 q=29.3 size=    1024KiB time=00:00:03.50 bitrate=2396.8kbits/s speed=0.012x elapsed=0:04:51.18    \nframe=  178 fps=0.6 q=34.6 size=    1024KiB time=00:00:03.52 bitrate=2383.2kbits/s speed=0.0121x elapsed=0:04:51.72    \nframe=  178 fps=0.6 q=34.6 size=    1024KiB time=00:00:03.52 bitrate=2383.2kbits/s speed=0.012x elapsed=0:04:52.26    \nframe=  180 fps=0.6 q=36.8 size=    1024KiB time=00:00:03.56 bitrate=2356.4kbits/s speed=0.0122x elapsed=0:04:52.80    \nframe=  180 fps=0.6 q=36.8 size=    1024KiB time=00:00:03.56 bitrate=2356.4kbits/s speed=0.0121x elapsed=0:04:53.31    \nframe=  180 fps=0.6 q=36.8 size=    1024KiB time=00:00:03.56 bitrate=2356.4kbits/s speed=0.0121x elapsed=0:04:53.83    \nframe=  181 fps=0.6 q=35.9 size=    1024KiB time=00:00:03.58 bitrate=2343.3kbits/s speed=0.0122x elapsed=0:04:54.36    \nframe=  181 fps=0.6 q=35.9 size=    1024KiB time=00:00:03.58 bitrate=2343.3kbits/s speed=0.0121x elapsed=0:04:55.02    \nframe=  181 fps=0.6 q=35.9 size=    1024KiB time=00:00:03.58 bitrate=2343.3kbits/s speed=0.0121x elapsed=0:04:55.60    \nframe=  181 fps=0.6 q=35.9 size=    1024KiB time=00:00:03.58 bitrate=2343.3kbits/s speed=0.0121x elapsed=0:04:56.13    \nframe=  182 fps=0.6 q=29.6 size=    1024KiB time=00:00:03.60 bitrate=2330.3kbits/s speed=0.0121x elapsed=0:04:56.66    \nframe=  183 fps=0.6 q=35.4 size=    1024KiB time=00:00:03.62 bitrate=2317.4kbits/s speed=0.0122x elapsed=0:04:57.18    \nframe=  184 fps=0.6 q=36.9 size=    1024KiB time=00:00:03.64 bitrate=2304.7kbits/s speed=0.0122x elapsed=0:04:57.69    \nframe=  184 fps=0.6 q=36.9 size=    1024KiB time=00:00:03.64 bitrate=2304.7kbits/s speed=0.0122x elapsed=0:04:58.25    \nframe=  185 fps=0.6 q=38.0 size=    1024KiB time=00:00:03.66 bitrate=2292.1kbits/s speed=0.0122x elapsed=0:04:58.79    \nframe=  185 fps=0.6 q=38.0 size=    1024KiB time=00:00:03.66 bitrate=2292.1kbits/s speed=0.0122x elapsed=0:04:59.37    \nframe=  187 fps=0.6 q=35.4 size=    1280KiB time=00:00:03.70 bitrate=2834.1kbits/s speed=0.0123x elapsed=0:04:59.91    \nframe=  187 fps=0.6 q=35.4 size=    1280KiB time=00:00:03.70 bitrate=2834.1kbits/s speed=0.0123x elapsed=0:05:00.46    \nframe=  188 fps=0.6 q=37.0 size=    1280KiB time=00:00:03.72 bitrate=2818.8kbits/s speed=0.0124x elapsed=0:05:00.98    \nframe=  189 fps=0.6 q=37.0 size=    1280KiB time=00:00:03.74 bitrate=2803.8kbits/s speed=0.0124x elapsed=0:05:01.52    \nframe=  189 fps=0.6 q=37.0 size=    1280KiB time=00:00:03.74 bitrate=2803.8kbits/s speed=0.0124x elapsed=0:05:02.08    \nframe=  189 fps=0.6 q=37.0 size=    1280KiB time=00:00:03.74 bitrate=2803.8kbits/s speed=0.0124x elapsed=0:05:02.64    \nframe=  189 fps=0.6 q=37.0 size=    1280KiB time=00:00:03.74 bitrate=2803.8kbits/s speed=0.0123x elapsed=0:05:03.16    \nframe=  190 fps=0.6 q=37.9 size=    1280KiB time=00:00:03.76 bitrate=2788.9kbits/s speed=0.0124x elapsed=0:05:03.69    \nframe=  190 fps=0.6 q=37.9 size=    1280KiB time=00:00:03.76 bitrate=2788.9kbits/s speed=0.0124x elapsed=0:05:04.24    \nframe=  190 fps=0.6 q=37.9 size=    1280KiB time=00:00:03.76 bitrate=2788.9kbits/s speed=0.0123x elapsed=0:05:04.83    \nframe=  192 fps=0.6 q=36.4 size=    1280KiB time=00:00:03.80 bitrate=2759.5kbits/s speed=0.0124x elapsed=0:05:05.40    \nframe=  192 fps=0.6 q=36.4 size=    1280KiB time=00:00:03.80 bitrate=2759.5kbits/s speed=0.0124x elapsed=0:05:05.98    \nframe=  193 fps=0.6 q=38.0 size=    1280KiB time=00:00:03.82 bitrate=2745.1kbits/s speed=0.0125x elapsed=0:05:06.55    \nframe=  193 fps=0.6 q=38.0 size=    1280KiB time=00:00:03.82 bitrate=2745.1kbits/s speed=0.0124x elapsed=0:05:07.13    \nframe=  194 fps=0.6 q=37.9 size=    1280KiB time=00:00:03.84 bitrate=2730.8kbits/s speed=0.0125x elapsed=0:05:07.66    \nframe=  194 fps=0.6 q=37.9 size=    1280KiB time=00:00:03.84 bitrate=2730.8kbits/s speed=0.0125x elapsed=0:05:08.24    \nframe=  194 fps=0.6 q=37.9 size=    1280KiB time=00:00:03.84 bitrate=2730.8kbits/s speed=0.0124x elapsed=0:05:08.79    \nframe=  195 fps=0.6 q=37.0 size=    1280KiB time=00:00:03.86 bitrate=2716.6kbits/s speed=0.0125x elapsed=0:05:09.30    \nframe=  195 fps=0.6 q=37.0 size=    1280KiB time=00:00:03.86 bitrate=2716.6kbits/s speed=0.0125x elapsed=0:05:09.83    \nframe=  195 fps=0.6 q=37.0 size=    1280KiB time=00:00:03.86 bitrate=2716.6kbits/s speed=0.0124x elapsed=0:05:10.38    \nframe=  195 fps=0.6 q=37.0 size=    1280KiB time=00:00:03.86 bitrate=2716.6kbits/s speed=0.0124x elapsed=0:05:10.92    \nframe=  195 fps=0.6 q=37.0 size=    1280KiB time=00:00:03.86 bitrate=2716.6kbits/s speed=0.0124x elapsed=0:05:11.48    \nframe=  195 fps=0.6 q=37.0 size=    1280KiB time=00:00:03.86 bitrate=2716.6kbits/s speed=0.0124x elapsed=0:05:12.03    \nframe=  196 fps=0.6 q=30.2 size=    1280KiB time=00:00:03.88 bitrate=2702.6kbits/s speed=0.0124x elapsed=0:05:12.57    \nframe=  197 fps=0.6 q=36.3 size=    1280KiB time=00:00:03.90 bitrate=2688.7kbits/s speed=0.0125x elapsed=0:05:13.11    \nframe=  197 fps=0.6 q=36.3 size=    1280KiB time=00:00:03.90 bitrate=2688.7kbits/s speed=0.0124x elapsed=0:05:13.67    \nframe=  197 fps=0.6 q=36.3 size=    1280KiB time=00:00:03.90 bitrate=2688.7kbits/s speed=0.0124x elapsed=0:05:14.29    \nframe=  197 fps=0.6 q=36.3 size=    1280KiB time=00:00:03.90 bitrate=2688.7kbits/s speed=0.0124x elapsed=0:05:14.94    \nframe=  197 fps=0.6 q=36.3 size=    1280KiB time=00:00:03.90 bitrate=2688.7kbits/s speed=0.0124x elapsed=0:05:15.54    \nframe=  198 fps=0.6 q=37.9 size=    1280KiB time=00:00:03.92 bitrate=2675.0kbits/s speed=0.0124x elapsed=0:05:16.10    \nframe=  199 fps=0.6 q=38.0 size=    1280KiB time=00:00:03.94 bitrate=2661.4kbits/s speed=0.0124x elapsed=0:05:16.65    \nframe=  199 fps=0.6 q=38.0 size=    1280KiB time=00:00:03.94 bitrate=2661.4kbits/s speed=0.0124x elapsed=0:05:17.25    \nframe=  199 fps=0.6 q=38.0 size=    1280KiB time=00:00:03.94 bitrate=2661.4kbits/s speed=0.0124x elapsed=0:05:17.86    \nframe=  199 fps=0.6 q=38.0 size=    1280KiB time=00:00:03.94 bitrate=2661.4kbits/s speed=0.0124x elapsed=0:05:18.48    \nframe=  199 fps=0.6 q=38.0 size=    1280KiB time=00:00:03.94 bitrate=2661.4kbits/s speed=0.0123x elapsed=0:05:19.03    \nframe=  200 fps=0.6 q=38.0 size=    1280KiB time=00:00:03.96 bitrate=2648.0kbits/s speed=0.0124x elapsed=0:05:19.59    \nframe=  200 fps=0.6 q=38.0 size=    1280KiB time=00:00:03.96 bitrate=2648.0kbits/s speed=0.0124x elapsed=0:05:20.13    \nframe=  200 fps=0.6 q=38.0 size=    1280KiB time=00:00:03.96 bitrate=2648.0kbits/s speed=0.0123x elapsed=0:05:20.67    \nframe=  200 fps=0.6 q=38.0 size=    1280KiB time=00:00:03.96 bitrate=2648.0kbits/s speed=0.0123x elapsed=0:05:21.20    \nframe=  201 fps=0.6 q=31.4 size=    1280KiB time=00:00:03.98 bitrate=2634.7kbits/s speed=0.0124x elapsed=0:05:21.75    \nframe=  201 fps=0.6 q=31.4 size=    1280KiB time=00:00:03.98 bitrate=2634.7kbits/s speed=0.0123x elapsed=0:05:22.28    \nframe=  203 fps=0.6 q=39.0 size=    1280KiB time=00:00:04.02 bitrate=2608.5kbits/s speed=0.0125x elapsed=0:05:22.82    \nframe=  203 fps=0.6 q=39.0 size=    1280KiB time=00:00:04.02 bitrate=2608.5kbits/s speed=0.0124x elapsed=0:05:23.34    \nframe=  204 fps=0.6 q=40.0 size=    1280KiB time=00:00:04.04 bitrate=2595.6kbits/s speed=0.0125x elapsed=0:05:23.86    \nframe=  204 fps=0.6 q=40.0 size=    1280KiB time=00:00:04.04 bitrate=2595.6kbits/s speed=0.0125x elapsed=0:05:24.38    \nframe=  207 fps=0.6 q=40.0 size=    1280KiB time=00:00:04.10 bitrate=2557.6kbits/s speed=0.0126x elapsed=0:05:24.90    \nframe=  208 fps=0.6 q=41.0 size=    1280KiB time=00:00:04.12 bitrate=2545.2kbits/s speed=0.0127x elapsed=0:05:25.42    \nframe=  208 fps=0.6 q=41.0 size=    1280KiB time=00:00:04.12 bitrate=2545.2kbits/s speed=0.0126x elapsed=0:05:25.92    \nframe=  210 fps=0.6 q=33.1 size=    1280KiB time=00:00:04.16 bitrate=2520.7kbits/s speed=0.0127x elapsed=0:05:26.45    \nframe=  212 fps=0.6 q=41.0 size=    1280KiB time=00:00:04.20 bitrate=2496.7kbits/s speed=0.0128x elapsed=0:05:26.98    \nframe=  213 fps=0.7 q=41.0 size=    1280KiB time=00:00:04.22 bitrate=2484.9kbits/s speed=0.0129x elapsed=0:05:27.50    \nframe=  214 fps=0.7 q=41.0 size=    1280KiB time=00:00:04.24 bitrate=2473.1kbits/s speed=0.0129x elapsed=0:05:28.03    \nframe=  215 fps=0.7 q=31.6 size=    1280KiB time=00:00:04.26 bitrate=2461.5kbits/s speed=0.013x elapsed=0:05:28.59    \nframe=  218 fps=0.7 q=40.0 size=    1536KiB time=00:00:04.32 bitrate=2912.8kbits/s speed=0.0131x elapsed=0:05:29.10    \nframe=  219 fps=0.7 q=40.0 size=    1536KiB time=00:00:04.34 bitrate=2899.4kbits/s speed=0.0132x elapsed=0:05:29.64    \nframe=  219 fps=0.7 q=40.0 size=    1536KiB time=00:00:04.34 bitrate=2899.4kbits/s speed=0.0131x elapsed=0:05:30.14    \nframe=  220 fps=0.7 q=31.6 size=    1536KiB time=00:00:04.36 bitrate=2886.1kbits/s speed=0.0132x elapsed=0:05:30.67    \nframe=  222 fps=0.7 q=40.0 size=    1536KiB time=00:00:04.40 bitrate=2859.8kbits/s speed=0.0133x elapsed=0:05:31.17    \nframe=  223 fps=0.7 q=39.0 size=    1536KiB time=00:00:04.42 bitrate=2846.9kbits/s speed=0.0133x elapsed=0:05:31.70    \nframe=  223 fps=0.7 q=39.0 size=    1536KiB time=00:00:04.42 bitrate=2846.9kbits/s speed=0.0133x elapsed=0:05:32.22    \nframe=  225 fps=0.7 q=37.5 size=    1536KiB time=00:00:04.46 bitrate=2821.4kbits/s speed=0.0134x elapsed=0:05:32.74    \nframe=  226 fps=0.7 q=39.0 size=    1536KiB time=00:00:04.48 bitrate=2808.8kbits/s speed=0.0134x elapsed=0:05:33.25    \nframe=  227 fps=0.7 q=39.0 size=    1536KiB time=00:00:04.50 bitrate=2796.3kbits/s speed=0.0135x elapsed=0:05:33.78    \nframe=  228 fps=0.7 q=30.6 size=    1536KiB time=00:00:04.52 bitrate=2783.9kbits/s speed=0.0135x elapsed=0:05:34.30    \nframe=  228 fps=0.7 q=30.6 size=    1536KiB time=00:00:04.52 bitrate=2783.9kbits/s speed=0.0135x elapsed=0:05:34.82    \nframe=  229 fps=0.7 q=37.6 size=    1536KiB time=00:00:04.54 bitrate=2771.6kbits/s speed=0.0135x elapsed=0:05:35.36    \nframe=  229 fps=0.7 q=37.6 size=    1536KiB time=00:00:04.54 bitrate=2771.6kbits/s speed=0.0135x elapsed=0:05:35.88    \nframe=  231 fps=0.7 q=39.0 size=    1536KiB time=00:00:04.58 bitrate=2747.4kbits/s speed=0.0136x elapsed=0:05:36.41    \nframe=  231 fps=0.7 q=39.0 size=    1536KiB time=00:00:04.58 bitrate=2747.4kbits/s speed=0.0136x elapsed=0:05:36.93    \nframe=  231 fps=0.7 q=39.0 size=    1536KiB time=00:00:04.58 bitrate=2747.4kbits/s speed=0.0136x elapsed=0:05:37.45    \nframe=  231 fps=0.7 q=39.0 size=    1536KiB time=00:00:04.58 bitrate=2747.4kbits/s speed=0.0136x elapsed=0:05:37.97    \nframe=  232 fps=0.7 q=31.0 size=    1536KiB time=00:00:04.60 bitrate=2735.5kbits/s speed=0.0136x elapsed=0:05:38.49    \nframe=  233 fps=0.7 q=36.4 size=    1536KiB time=00:00:04.62 bitrate=2723.7kbits/s speed=0.0136x elapsed=0:05:39.03    \nframe=  234 fps=0.7 q=38.0 size=    1536KiB time=00:00:04.64 bitrate=2711.9kbits/s speed=0.0137x elapsed=0:05:39.56    \nframe=  235 fps=0.7 q=38.9 size=    1536KiB time=00:00:04.66 bitrate=2700.3kbits/s speed=0.0137x elapsed=0:05:40.09    \nframe=  236 fps=0.7 q=39.0 size=    1536KiB time=00:00:04.68 bitrate=2688.7kbits/s speed=0.0137x elapsed=0:05:40.62    \nframe=  237 fps=0.7 q=31.4 size=    1536KiB time=00:00:04.70 bitrate=2677.3kbits/s speed=0.0138x elapsed=0:05:41.16    \nframe=  237 fps=0.7 q=31.4 size=    1536KiB time=00:00:04.70 bitrate=2677.3kbits/s speed=0.0138x elapsed=0:05:41.68    \nframe=  238 fps=0.7 q=37.3 size=    1536KiB time=00:00:04.72 bitrate=2665.9kbits/s speed=0.0138x elapsed=0:05:42.21    \nframe=  238 fps=0.7 q=37.3 size=    1536KiB time=00:00:04.72 bitrate=2665.9kbits/s speed=0.0138x elapsed=0:05:42.76    \nframe=  240 fps=0.7 q=37.0 size=    1536KiB time=00:00:04.74 bitrate=2654.7kbits/s speed=0.0138x elapsed=0:05:43.28    \nframe=  240 fps=0.7 q=37.0 size=    1536KiB time=00:00:04.76 bitrate=2643.5kbits/s speed=0.0138x elapsed=0:05:43.79    \nframe=  240 fps=0.7 q=37.0 size=    1536KiB time=00:00:04.76 bitrate=2643.5kbits/s speed=0.0138x elapsed=0:05:44.30    \nframe=  240 fps=0.7 q=37.0 size=    1536KiB time=00:00:04.76 bitrate=2643.5kbits/s speed=0.0138x elapsed=0:05:44.83    \nframe=  242 fps=0.7 q=36.1 size=    1536KiB time=00:00:04.80 bitrate=2621.5kbits/s speed=0.0139x elapsed=0:05:45.34    \nframe=  242 fps=0.7 q=36.1 size=    1536KiB time=00:00:04.80 bitrate=2621.5kbits/s speed=0.0139x elapsed=0:05:45.87    \nframe=  243 fps=0.7 q=36.1 size=    1536KiB time=00:00:04.82 bitrate=2610.6kbits/s speed=0.0139x elapsed=0:05:46.38    \nframe=  243 fps=0.7 q=36.1 size=    1536KiB time=00:00:04.82 bitrate=2610.6kbits/s speed=0.0139x elapsed=0:05:46.90    \nframe=  244 fps=0.7 q=35.1 size=    1536KiB time=00:00:04.84 bitrate=2599.8kbits/s speed=0.0139x elapsed=0:05:47.43    \nframe=  244 fps=0.7 q=35.1 size=    1536KiB time=00:00:04.84 bitrate=2599.8kbits/s speed=0.0139x elapsed=0:05:47.95    \nframe=  245 fps=0.7 q=34.9 size=    1536KiB time=00:00:04.86 bitrate=2589.1kbits/s speed=0.0139x elapsed=0:05:48.49    \nframe=  245 fps=0.7 q=34.9 size=    1536KiB time=00:00:04.86 bitrate=2589.1kbits/s speed=0.0139x elapsed=0:05:49.01    \nframe=  246 fps=0.7 q=32.4 size=    1536KiB time=00:00:04.88 bitrate=2578.5kbits/s speed=0.014x elapsed=0:05:49.52    \nframe=  247 fps=0.7 q=32.2 size=    1536KiB time=00:00:04.90 bitrate=2568.0kbits/s speed=0.014x elapsed=0:05:50.04    \nframe=  248 fps=0.7 q=35.2 size=    1536KiB time=00:00:04.92 bitrate=2557.6kbits/s speed=0.014x elapsed=0:05:50.57    \nframe=  248 fps=0.7 q=35.2 size=    1536KiB time=00:00:04.92 bitrate=2557.6kbits/s speed=0.014x elapsed=0:05:51.11    \n[mp4 @ 000001317951aa40] Starting second pass: moving the moov atom to the beginning of the file\n[out#0/mp4 @ 00000131795a7d80] video:1768KiB audio:0KiB subtitle:0KiB other streams:0KiB global headers:2KiB muxing overhead: 0.349312%\nframe=  250 fps=0.7 q=35.0 Lsize=    1774KiB time=00:00:04.96 bitrate=2930.2kbits/s speed=0.0141x elapsed=0:05:51.29    \nx265 [info]: frame I:      1, Avg QP:37.57  kb/s: 34646.80\nx265 [info]: frame P:     53, Avg QP:31.77  kb/s: 11862.06\nx265 [info]: frame B:    196, Avg QP:38.58  kb/s: 308.32  \nx265 [info]: Weighted P-Frames: Y:0.0% UV:0.0%\n\nencoded 250 frames in 348.42s (0.72 fps), 2895.07 kb/s, Avg QP:37.14\n",
  "seconds": 351.88757586479187,
  "probe_out": {}
}